<svg xmlns="http://www.w3.org/2000/svg" viewBox="0 0 348 263" class=" css-1xpuqxu"><g clip-path="url(#clip0_235_49395)"><path d="M243.066 224.26C234.852 242.308 213.557 250.281 195.509 242.067C177.461 233.852 169.486 212.559 177.702 194.509C174.708 201.086 186.908 213.08 204.962 221.297C223.016 229.514 240.073 230.836 243.066 224.26Z" fill="currentColor" stroke="black" stroke-width="1.49333" stroke-miterlimit="10"></path><path d="M204.961 221.299C223.011 229.514 240.072 230.84 243.066 224.26C246.061 217.68 233.857 205.686 215.807 197.47C197.757 189.255 180.697 187.929 177.702 194.509C174.707 201.089 186.912 213.083 204.961 221.299Z" fill="currentColor" stroke="black" stroke-width="1.49333" stroke-miterlimit="10"></path><path d="M206.449 218.031C187.416 209.368 179.634 198.93 180.969 195.997C182.305 193.063 195.287 192.076 214.319 200.738C233.352 209.401 241.134 219.839 239.798 222.772C238.463 225.706 225.481 226.693 206.449 218.031Z" fill="currentColor" stroke="black" stroke-width="1.49333" stroke-miterlimit="10"></path><path d="M243.066 224.26C234.852 242.308 213.557 250.281 195.509 242.067C177.461 233.852 169.486 212.559 177.702 194.509C174.708 201.086 186.908 213.08 204.962 221.297C223.016 229.514 240.073 230.836 243.066 224.26Z" fill="white" fill-opacity="0.2" stroke="black" stroke-width="1.49333" stroke-miterlimit="10"></path><path d="M215.808 197.469C197.758 189.253 180.698 187.927 177.703 194.507C174.708 201.088 186.913 213.081 204.962 221.297C223.012 229.512 240.072 230.838 243.067 224.258C246.062 217.678 233.858 205.684 215.808 197.469ZM206.449 218.031C187.417 209.368 179.634 198.931 180.97 195.997C182.305 193.063 195.287 192.076 214.32 200.738C233.352 209.401 241.134 219.839 239.799 222.772C238.463 225.706 225.481 226.693 206.449 218.031Z" fill="white" fill-opacity="0.2" stroke="black" stroke-width="1.49333" stroke-miterlimit="10"></path><path d="M215.808 197.469C197.758 189.253 180.698 187.927 177.703 194.507C174.708 201.088 186.913 213.081 204.962 221.297C223.012 229.512 240.072 230.838 243.067 224.258C246.062 217.678 233.858 205.684 215.808 197.469Z" stroke="black" stroke-width="1.49333" stroke-miterlimit="10"></path><path d="M243.066 224.26C240.073 230.836 223.012 229.512 204.962 221.297C186.913 213.081 174.711 201.087 177.704 194.51C185.921 176.456 207.208 168.486 225.259 176.702C243.311 184.918 251.284 206.206 243.066 224.26Z" fill="white" fill-opacity="0.8"></path><path opacity="0.8" d="M231.206 197.574C232.777 198.289 234.63 197.595 235.345 196.024C236.06 194.453 235.366 192.6 233.795 191.885C232.224 191.17 230.371 191.864 229.656 193.435C228.941 195.006 229.635 196.859 231.206 197.574Z" fill="white"></path><path opacity="0.8" d="M234.916 203.571C236.371 209.23 235.972 215.405 233.363 221.137" stroke="white" stroke-width="2.13333" stroke-linecap="round" stroke-linejoin="round"></path><path d="M225.259 176.702C207.208 168.486 185.921 176.456 177.704 194.51C174.711 201.087 186.911 213.08 204.964 221.298C223.018 229.515 240.075 230.837 243.068 224.261C251.285 206.207 243.311 184.918 225.261 176.703L225.259 176.702ZM206.45 218.029C187.419 209.367 179.636 198.931 180.972 195.998C188.354 179.779 207.553 172.588 223.772 179.97C239.991 187.352 247.181 206.554 239.799 222.772C238.463 225.706 225.482 226.691 206.45 218.029Z" fill="white" fill-opacity="0.8"></path><path d="M243.066 224.26C240.073 230.836 223.01 229.511 204.962 221.297C186.915 213.082 174.711 201.087 177.704 194.51C185.921 176.456 207.208 168.486 225.259 176.702C243.311 184.918 251.284 206.206 243.066 224.26Z" stroke="black" stroke-width="1.49333" stroke-miterlimit="10"></path></g><g clip-path="url(#clip1_235_49395)"><path d="M219.803 162.306C229.034 179.856 222.289 201.571 204.739 210.802C187.189 220.034 165.475 213.29 156.243 195.739C159.606 202.134 176.56 199.84 194.115 190.606C211.671 181.372 223.166 168.701 219.803 162.306Z" fill="currentColor" stroke="black" stroke-width="1.49333" stroke-miterlimit="10"></path><path d="M194.116 190.608C211.668 181.375 223.168 168.704 219.802 162.306C216.437 155.908 199.48 158.205 181.928 167.437C164.377 176.67 152.877 189.341 156.242 195.739C159.608 202.137 176.565 199.84 194.116 190.608Z" fill="currentColor" stroke="black" stroke-width="1.49333" stroke-miterlimit="10"></path><path d="M192.445 187.43C173.938 197.165 160.921 196.92 159.42 194.067C157.919 191.215 165.093 180.35 183.6 170.615C202.107 160.88 215.124 161.125 216.625 163.977C218.125 166.83 210.952 177.695 192.445 187.43Z" fill="currentColor" stroke="black" stroke-width="1.49333" stroke-miterlimit="10"></path><path d="M219.803 162.306C229.034 179.856 222.289 201.571 204.739 210.802C187.189 220.034 165.475 213.29 156.243 195.739C159.606 202.134 176.56 199.84 194.115 190.606C211.671 181.372 223.166 168.701 219.803 162.306Z" fill="white" fill-opacity="0.2" stroke="black" stroke-width="1.49333" stroke-miterlimit="10"></path><path d="M181.927 167.435C164.376 176.668 152.876 189.338 156.241 195.737C159.607 202.136 176.564 199.838 194.115 190.606C211.667 181.374 223.167 168.703 219.801 162.304C216.435 155.905 199.479 158.203 181.927 167.435ZM192.445 187.43C173.938 197.165 160.921 196.92 159.42 194.067C157.919 191.215 165.093 180.35 183.6 170.615C202.107 160.88 215.124 161.125 216.625 163.977C218.125 166.83 210.952 177.695 192.445 187.43Z" fill="white" fill-opacity="0.2" stroke="black" stroke-width="1.49333" stroke-miterlimit="10"></path><path d="M181.927 167.436C164.376 176.668 152.876 189.338 156.241 195.737C159.607 202.136 176.564 199.838 194.115 190.606C211.667 181.374 223.167 168.703 219.801 162.304C216.435 155.906 199.479 158.203 181.927 167.436Z" stroke="black" stroke-width="1.49333" stroke-miterlimit="10"></path><path d="M219.802 162.306C223.166 168.701 211.667 181.374 194.115 190.606C176.564 199.838 159.608 202.133 156.244 195.738C147.01 178.183 153.753 156.476 171.306 147.243C188.859 138.009 210.568 144.751 219.802 162.306Z" fill="white" fill-opacity="0.8"></path><path opacity="0.8" d="M191.445 155.33C192.973 154.527 193.56 152.637 192.756 151.109C191.952 149.582 190.063 148.995 188.535 149.798C187.007 150.602 186.42 152.492 187.224 154.019C188.028 155.547 189.917 156.134 191.445 155.33Z" fill="white"></path><path opacity="0.8" d="M198.457 156.072C203.822 158.39 208.458 162.488 211.39 168.062" stroke="white" stroke-width="2.13333" stroke-linecap="round" stroke-linejoin="round"></path><path d="M171.306 147.243C153.753 156.476 147.01 178.183 156.244 195.738C159.608 202.133 176.562 199.839 194.117 190.605C211.672 181.371 223.168 168.7 219.804 162.305C210.57 144.75 188.859 138.009 171.308 147.242L171.306 147.243ZM192.444 187.428C173.939 197.162 160.923 196.919 159.422 194.067C151.126 178.296 157.206 158.716 172.977 150.42C188.748 142.125 208.329 148.207 216.625 163.978C218.125 166.83 210.951 177.694 192.444 187.428Z" fill="white" fill-opacity="0.8"></path><path d="M219.802 162.306C223.166 168.701 211.665 181.375 194.115 190.606C176.566 199.837 159.608 202.133 156.244 195.738C147.01 178.183 153.753 156.476 171.306 147.243C188.859 138.009 210.568 144.751 219.802 162.306Z" stroke="black" stroke-width="1.49333" stroke-miterlimit="10"></path></g><g clip-path="url(#clip2_235_49395)"><path d="M93.3966 102.458C83.7624 119.789 61.8968 126.031 44.5652 116.397C27.2335 106.763 20.9908 84.8989 30.626 67.5654C27.1154 73.8809 38.3152 86.8138 55.6524 96.451C72.9897 106.088 89.886 108.773 93.3966 102.458Z" fill="currentColor" stroke="black" stroke-width="1.49333" stroke-miterlimit="10"></path><path d="M55.6519 96.4528C72.9855 106.088 89.8846 108.776 93.3971 102.458C96.9095 96.1387 85.7052 83.2054 68.3716 73.5701C51.038 63.9349 34.1389 61.2465 30.6265 67.5653C27.114 73.8842 38.3183 86.8175 55.6519 96.4528Z" fill="currentColor" stroke="black" stroke-width="1.49333" stroke-miterlimit="10"></path><path d="M57.3961 93.3146C39.1191 83.155 32.1983 72.1272 33.7644 69.3097C35.3305 66.4923 48.35 66.5487 66.627 76.7083C84.904 86.8679 91.8248 97.8957 90.2587 100.713C88.6926 103.531 75.6731 103.474 57.3961 93.3146Z" fill="currentColor" stroke="black" stroke-width="1.49333" stroke-miterlimit="10"></path><path d="M93.3966 102.458C83.7624 119.789 61.8968 126.031 44.5652 116.397C27.2335 106.763 20.9908 84.8989 30.626 67.5654C27.1154 73.8809 38.3152 86.8138 55.6524 96.451C72.9897 106.088 89.886 108.773 93.3966 102.458Z" fill="white" fill-opacity="0.2" stroke="black" stroke-width="1.49333" stroke-miterlimit="10"></path><path d="M68.3726 73.5683C51.0391 63.9331 34.1401 61.2443 30.6274 67.5635C27.1148 73.8827 38.3193 86.8158 55.6529 96.4509C72.9864 106.086 89.8854 108.775 93.398 102.456C96.9107 96.1365 85.7061 83.2035 68.3726 73.5683ZM57.3962 93.3146C39.1192 83.155 32.1984 72.1272 33.7646 69.3098C35.3307 66.4923 48.3502 66.5487 66.6272 76.7083C84.9042 86.868 91.825 97.8958 90.2588 100.713C88.6927 103.531 75.6732 103.474 57.3962 93.3146Z" fill="white" fill-opacity="0.2" stroke="black" stroke-width="1.49333" stroke-miterlimit="10"></path><path d="M68.3726 73.5683C51.0391 63.9331 34.1401 61.2443 30.6274 67.5635C27.1148 73.8827 38.3193 86.8158 55.6529 96.4509C72.9864 106.086 89.8854 108.775 93.398 102.456C96.9107 96.1365 85.7061 83.2035 68.3726 73.5683Z" stroke="black" stroke-width="1.49333" stroke-miterlimit="10"></path><path d="M93.3968 102.458C89.8863 108.773 72.9862 106.086 55.6527 96.4509C38.3192 86.8157 27.1175 73.8818 30.6281 67.5663C40.2653 50.2291 62.1223 43.9899 79.4576 53.6261C96.793 63.2623 103.034 85.1203 93.3968 102.458Z" fill="white" fill-opacity="0.8"></path><path opacity="0.8" d="M83.7128 74.9074C85.2215 75.7461 87.1243 75.2029 87.963 73.6942C88.8016 72.1856 88.2584 70.2827 86.7497 69.4441C85.2411 68.6055 83.3382 69.1487 82.4996 70.6573C81.661 72.166 82.2042 74.0688 83.7128 74.9074Z" fill="white"></path><path opacity="0.8" d="M86.9297 81.1819C87.927 86.94 87.0348 93.0634 83.9751 98.5678" stroke="white" stroke-width="2.13333" stroke-linecap="round" stroke-linejoin="round"></path><path d="M79.4576 53.6261C62.1223 43.9899 40.2653 50.2291 30.6281 67.5663C27.1175 73.8818 38.3173 86.8147 55.6546 96.4519C72.9918 106.089 89.8881 108.774 93.3987 102.459C103.036 85.1213 96.793 63.2623 79.4595 53.6271L79.4576 53.6261ZM57.3971 93.3127C39.122 83.1541 32.2001 72.1282 33.7663 69.3107C42.424 53.7356 62.1381 48.1065 77.7132 56.7643C93.2884 65.422 98.9164 85.1379 90.2587 100.713C88.6925 103.531 75.6741 103.472 57.3971 93.3127Z" fill="white" fill-opacity="0.8"></path><path d="M93.3968 102.458C89.8863 108.773 72.9843 106.085 55.6527 96.4509C38.3211 86.8167 27.1175 73.8818 30.6281 67.5663C40.2653 50.2291 62.1223 43.9899 79.4576 53.6261C96.793 63.2623 103.034 85.1203 93.3968 102.458Z" stroke="black" stroke-width="1.49333" stroke-miterlimit="10"></path></g><g clip-path="url(#clip3_235_49395)"><path d="M188.114 64.0732C181.162 82.644 160.466 92.0656 141.896 85.1138C123.325 78.1621 113.902 57.4687 120.855 38.8959C118.322 45.6629 131.319 56.7879 149.896 63.7419C168.473 70.6959 185.58 70.8402 188.114 64.0732Z" fill="currentColor" stroke="black" stroke-width="1.49333" stroke-miterlimit="10"></path><path d="M149.895 63.7438C168.468 70.6964 185.579 70.8438 188.113 64.0732C190.648 57.3025 177.646 46.1777 159.073 39.2251C140.5 32.2726 123.389 32.1252 120.855 38.8958C118.32 45.6665 131.322 56.7913 149.895 63.7438Z" fill="currentColor" stroke="black" stroke-width="1.49333" stroke-miterlimit="10"></path><path d="M151.154 60.3813C131.57 53.0504 123.087 43.1734 124.217 40.1545C125.348 37.1356 138.231 35.2567 157.815 42.5876C177.398 49.9186 185.881 59.7955 184.751 62.8144C183.621 65.8333 170.738 67.7122 151.154 60.3813Z" fill="currentColor" stroke="black" stroke-width="1.49333" stroke-miterlimit="10"></path><path d="M188.114 64.0732C181.162 82.644 160.466 92.0656 141.896 85.1138C123.325 78.1621 113.902 57.4687 120.855 38.8959C118.322 45.6629 131.319 56.7879 149.896 63.7419C168.473 70.6959 185.58 70.8402 188.114 64.0732Z" fill="white" fill-opacity="0.2" stroke="black" stroke-width="1.49333" stroke-miterlimit="10"></path><path d="M159.074 39.2232C140.501 32.2707 123.39 32.1229 120.856 38.8939C118.321 45.6649 131.323 56.7894 149.896 63.7419C168.469 70.6944 185.58 70.8422 188.114 64.0712C190.649 57.3002 177.647 46.1757 159.074 39.2232ZM151.154 60.3814C131.57 53.0504 123.087 43.1735 124.217 40.1546C125.348 37.1357 138.231 35.2568 157.815 42.5877C177.398 49.9186 185.881 59.7956 184.751 62.8145C183.621 65.8334 170.738 67.7123 151.154 60.3814Z" fill="white" fill-opacity="0.2" stroke="black" stroke-width="1.49333" stroke-miterlimit="10"></path><path d="M159.074 39.2231C140.501 32.2706 123.39 32.1227 120.856 38.8937C118.321 45.6648 131.323 56.7893 149.896 63.7418C168.469 70.6943 185.58 70.8421 188.114 64.0711C190.649 57.3001 177.647 46.1756 159.074 39.2231Z" stroke="black" stroke-width="1.49333" stroke-miterlimit="10"></path><path d="M188.113 64.0731C185.58 70.8401 168.468 70.6943 149.896 63.7418C131.323 56.7893 118.324 45.6635 120.857 38.8965C127.811 20.3197 148.498 10.9019 167.073 17.8551C185.647 24.8084 195.067 45.4963 188.113 64.0731Z" fill="white" fill-opacity="0.8"></path><path opacity="0.8" d="M174.443 38.2679C176.06 38.873 177.861 38.0531 178.466 36.4366C179.071 34.82 178.251 33.019 176.634 32.4139C175.018 31.8088 173.217 32.6287 172.612 34.2452C172.007 35.8617 172.827 37.6627 174.443 38.2679Z" fill="white"></path><path opacity="0.8" d="M178.557 43.9945C180.399 49.5405 180.426 55.7285 178.218 61.6264" stroke="white" stroke-width="2.13333" stroke-linecap="round" stroke-linejoin="round"></path><path d="M167.073 17.8551C148.498 10.9019 127.811 20.3197 120.857 38.8965C118.324 45.6635 131.321 56.7885 149.898 63.7425C168.474 70.6965 185.582 70.8409 188.115 64.0738C195.069 45.497 185.647 24.8084 167.075 17.8559L167.073 17.8551ZM151.154 60.3792C131.572 53.0491 123.089 43.1741 124.219 40.1552C130.466 23.4664 149.125 14.9704 165.814 21.2177C182.503 27.4649 190.998 46.1256 184.751 62.8144C183.621 65.8333 170.738 67.7102 151.154 60.3792Z" fill="white" fill-opacity="0.8"></path><path d="M188.113 64.0731C185.58 70.8401 168.466 70.6935 149.896 63.7418C131.325 56.79 118.324 45.6635 120.857 38.8965C127.811 20.3197 148.498 10.9019 167.073 17.8551C185.647 24.8084 195.067 45.4963 188.113 64.0731Z" stroke="black" stroke-width="1.49333" stroke-miterlimit="10"></path></g><g clip-path="url(#clip4_235_49395)"><path d="M198.037 163.586C181.194 174.051 159.05 168.879 148.586 152.036C138.121 135.193 143.291 113.051 160.136 102.585C153.998 106.398 157.501 123.144 167.969 139.993C178.437 156.841 191.899 167.4 198.037 163.586Z" fill="currentColor" stroke="black" stroke-width="1.49333" stroke-miterlimit="10"></path><path d="M167.967 139.994C178.433 156.839 191.896 167.402 198.036 163.586C204.177 159.771 200.671 143.023 190.205 126.178C179.739 109.333 166.276 98.7699 160.136 102.585C153.995 106.401 157.501 123.149 167.967 139.994Z" fill="currentColor" stroke="black" stroke-width="1.49333" stroke-miterlimit="10"></path><path d="M171.017 138.099C159.981 120.337 159.292 107.336 162.031 105.635C164.769 103.934 176.12 110.311 187.155 128.072C198.191 145.834 198.88 158.835 196.142 160.537C193.404 162.238 182.053 155.861 171.017 138.099Z" fill="currentColor" stroke="black" stroke-width="1.49333" stroke-miterlimit="10"></path><path d="M198.037 163.586C181.194 174.051 159.05 168.879 148.586 152.036C138.121 135.193 143.291 113.051 160.136 102.585C153.998 106.398 157.501 123.144 167.969 139.993C178.437 156.841 191.899 167.4 198.037 163.586Z" fill="white" fill-opacity="0.2" stroke="black" stroke-width="1.49333" stroke-miterlimit="10"></path><path d="M190.206 126.176C179.74 109.332 166.278 98.7686 160.137 102.584C153.996 106.4 157.503 123.148 167.969 139.993C178.435 156.838 191.897 167.401 198.038 163.585C204.179 159.77 200.672 143.021 190.206 126.176ZM171.017 138.099C159.981 120.338 159.292 107.336 162.03 105.635C164.768 103.934 176.119 110.311 187.155 128.072C198.19 145.834 198.879 158.836 196.141 160.537C193.403 162.238 182.052 155.861 171.017 138.099Z" fill="white" fill-opacity="0.2" stroke="black" stroke-width="1.49333" stroke-miterlimit="10"></path><path d="M190.207 126.176C179.741 109.332 166.279 98.7686 160.138 102.584C153.996 106.4 157.503 123.148 167.969 139.993C178.435 156.838 191.897 167.401 198.038 163.585C204.179 159.77 200.673 143.021 190.207 126.176Z" stroke="black" stroke-width="1.49333" stroke-miterlimit="10"></path><path d="M198.036 163.586C191.899 167.4 178.435 156.838 167.969 139.993C157.503 123.148 153.999 106.4 160.137 102.587C176.985 92.1189 199.119 97.2888 209.587 114.135C220.054 130.982 214.885 153.118 198.036 163.586Z" fill="white" fill-opacity="0.8"></path><path opacity="0.8" d="M202.963 134.802C203.874 136.268 205.801 136.719 207.267 135.808C208.733 134.897 209.183 132.97 208.272 131.504C207.361 130.037 205.434 129.587 203.968 130.498C202.502 131.409 202.052 133.336 202.963 134.802Z" fill="white"></path><path opacity="0.8" d="M202.725 141.849C200.798 147.366 197.042 152.284 191.693 155.608" stroke="white" stroke-width="2.13333" stroke-linecap="round" stroke-linejoin="round"></path><path d="M209.587 114.135C199.119 97.2888 176.985 92.1189 160.137 102.587C153.999 106.4 157.502 123.146 167.97 139.995C178.438 156.843 191.9 167.402 198.038 163.588C214.886 153.12 220.054 130.982 209.588 114.137L209.587 114.135ZM171.019 138.098C159.984 120.338 159.293 107.338 162.031 105.637C177.168 96.2326 197.133 100.894 206.537 116.03C215.941 131.166 211.278 151.132 196.142 160.537C193.404 162.238 182.054 155.86 171.019 138.098Z" fill="white" fill-opacity="0.8"></path><path d="M198.036 163.586C191.899 167.4 178.434 156.836 167.969 139.993C157.504 123.15 153.999 106.4 160.137 102.587C176.985 92.1189 199.119 97.2888 209.587 114.135C220.054 130.982 214.885 153.118 198.036 163.586Z" stroke="black" stroke-width="1.49333" stroke-miterlimit="10"></path></g><g clip-path="url(#clip5_235_49395)"><path d="M289.693 71.5031C281.624 89.6165 260.393 97.7611 242.28 89.6921C224.166 81.623 216.021 60.3946 224.091 42.2793C221.151 48.8796 233.447 60.775 251.566 68.8466C269.685 76.9182 286.752 78.1034 289.693 71.5031Z" fill="currentColor" stroke="black" stroke-width="1.49333" stroke-miterlimit="10"></path><path d="M251.565 68.8485C269.68 76.9184 286.751 78.1069 289.693 71.5031C292.634 64.8992 280.334 53.0037 262.218 44.9338C244.103 36.8639 227.033 35.6754 224.091 42.2792C221.149 48.8831 233.45 60.7786 251.565 68.8485Z" fill="currentColor" stroke="black" stroke-width="1.49333" stroke-miterlimit="10"></path><path d="M253.026 65.5688C233.925 57.0597 226.059 46.6848 227.371 43.7403C228.682 40.7958 241.656 39.7044 260.757 48.2135C279.859 56.7227 287.725 67.0975 286.413 70.0421C285.101 72.9866 272.128 74.078 253.026 65.5688Z" fill="currentColor" stroke="black" stroke-width="1.49333" stroke-miterlimit="10"></path><path d="M289.693 71.5031C281.624 89.6165 260.393 97.7611 242.28 89.6921C224.166 81.623 216.021 60.3946 224.091 42.2793C221.151 48.8796 233.447 60.775 251.566 68.8466C269.685 76.9182 286.752 78.1034 289.693 71.5031Z" fill="white" fill-opacity="0.2" stroke="black" stroke-width="1.49333" stroke-miterlimit="10"></path><path d="M262.219 44.9319C244.104 36.862 227.034 35.6731 224.092 42.2773C221.15 48.8815 233.451 60.7767 251.566 68.8465C269.681 76.9164 286.751 78.1053 289.693 71.5011C292.635 64.8969 280.335 53.0017 262.219 44.9319ZM253.026 65.5688C233.925 57.0597 226.059 46.6848 227.371 43.7403C228.682 40.7957 241.656 39.7044 260.757 48.2135C279.859 56.7226 287.725 67.0975 286.413 70.042C285.101 72.9866 272.127 74.0779 253.026 65.5688Z" fill="white" fill-opacity="0.2" stroke="black" stroke-width="1.49333" stroke-miterlimit="10"></path><path d="M262.218 44.932C244.103 36.8621 227.033 35.6732 224.091 42.2774C221.149 48.8816 233.45 60.7768 251.565 68.8467C269.68 76.9166 286.751 78.1054 289.693 71.5012C292.635 64.897 280.334 53.0019 262.218 44.932Z" stroke="black" stroke-width="1.49333" stroke-miterlimit="10"></path><path d="M289.692 71.5032C286.752 78.1035 269.681 76.9165 251.565 68.8467C233.45 60.7768 221.152 48.8805 224.092 42.2802C232.164 24.161 253.386 16.0197 271.503 24.0904C289.62 32.1612 297.764 53.384 289.692 71.5032Z" fill="white" fill-opacity="0.8"></path><path opacity="0.8" d="M277.617 44.9139C279.194 45.6163 281.042 44.9075 281.744 43.3308C282.447 41.7541 281.738 39.9065 280.161 39.2041C278.584 38.5018 276.737 39.2105 276.034 40.7872C275.332 42.364 276.041 44.2115 277.617 44.9139Z" fill="white"></path><path opacity="0.8" d="M281.375 50.8802C282.876 56.5281 282.526 62.7063 279.964 68.4589" stroke="white" stroke-width="2.13333" stroke-linecap="round" stroke-linejoin="round"></path><path d="M271.503 24.0904C253.386 16.0197 232.164 24.161 224.092 42.2802C221.152 48.8805 233.448 60.7759 251.567 68.8475C269.686 76.9192 286.754 78.1044 289.694 71.504C297.766 53.3848 289.62 32.1612 271.505 24.0913L271.503 24.0904ZM253.026 65.567C233.927 57.0587 226.06 46.6858 227.372 43.7412C234.623 27.4636 253.764 20.1188 270.042 27.3701C286.32 34.6214 293.664 53.7645 286.412 70.0422C285.101 72.9867 272.128 74.0761 253.026 65.567Z" fill="white" fill-opacity="0.8"></path><path d="M289.692 71.5032C286.752 78.1035 269.679 76.9157 251.565 68.8467C233.452 60.7776 221.152 48.8805 224.092 42.2802C232.164 24.161 253.386 16.0197 271.503 24.0904C289.62 32.1612 297.764 53.384 289.692 71.5032Z" stroke="black" stroke-width="1.49333" stroke-miterlimit="10"></path></g><g clip-path="url(#clip6_235_49395)"><path d="M145.629 53.1114C156.117 36.2826 178.267 31.1409 195.096 41.6287C211.925 52.1166 217.068 74.2649 206.579 91.0955C210.4 84.9632 199.86 71.4871 183.026 60.9959C166.192 50.5047 149.451 46.9791 145.629 53.1114Z" fill="currentColor" stroke="black" stroke-width="1.49333" stroke-miterlimit="10"></path><path d="M183.027 60.9941C166.197 50.5051 149.453 46.9759 145.629 53.1114C141.806 59.2469 152.35 72.7238 169.181 83.2128C186.011 93.7018 202.755 97.231 206.579 91.0955C210.402 84.96 199.858 71.4831 183.027 60.9941Z" fill="currentColor" stroke="black" stroke-width="1.49333" stroke-miterlimit="10"></path><path d="M181.128 64.0412C198.875 75.1011 205.236 86.4608 203.531 89.1965C201.826 91.9322 188.826 91.2256 171.079 80.1657C153.333 69.1058 146.971 57.7461 148.676 55.0104C150.381 52.2747 163.381 52.9813 181.128 64.0412Z" fill="currentColor" stroke="black" stroke-width="1.49333" stroke-miterlimit="10"></path><path d="M145.629 53.1115C156.117 36.2827 178.267 31.141 195.096 41.6289C211.925 52.1167 217.068 74.265 206.579 91.0956C210.4 84.9633 199.86 71.4872 183.026 60.996C166.192 50.5048 149.451 46.9792 145.629 53.1115Z" fill="white" fill-opacity="0.2" stroke="black" stroke-width="1.49333" stroke-miterlimit="10"></path><path d="M169.179 83.2146C186.01 93.7036 202.753 97.2332 206.577 91.0973C210.401 84.9615 199.857 71.4849 183.026 60.9959C166.195 50.507 149.452 46.9774 145.628 53.1132C141.804 59.2491 152.349 72.7257 169.179 83.2146ZM181.128 64.0412C198.875 75.1011 205.236 86.4608 203.531 89.1965C201.826 91.9322 188.826 91.2256 171.079 80.1657C153.333 69.1058 146.971 57.7461 148.676 55.0104C150.381 52.2747 163.381 52.9813 181.128 64.0412Z" fill="white" fill-opacity="0.2" stroke="black" stroke-width="1.49333" stroke-miterlimit="10"></path><path d="M169.179 83.2146C186.009 93.7036 202.753 97.2332 206.577 91.0973C210.401 84.9615 199.856 71.4849 183.026 60.9959C166.195 50.507 149.451 46.9774 145.627 53.1132C141.803 59.2491 152.348 72.7257 169.179 83.2146Z" stroke="black" stroke-width="1.49333" stroke-miterlimit="10"></path><path d="M145.629 53.1113C149.451 46.9791 166.195 50.5069 183.026 60.9958C199.857 71.4848 210.398 84.9621 206.577 91.0943C196.085 107.929 173.944 113.068 157.112 102.578C140.279 92.088 135.138 69.9455 145.629 53.1113Z" fill="white" fill-opacity="0.8"></path><path opacity="0.8" d="M153.925 81.1109C152.46 80.198 150.532 80.6454 149.619 82.1103C148.706 83.5752 149.154 85.5028 150.619 86.4157C152.083 87.3287 154.011 86.8812 154.924 85.4163C155.837 83.9514 155.389 82.0238 153.925 81.1109Z" fill="white"></path><path opacity="0.8" d="M151.025 74.6837C150.317 68.883 151.514 62.8118 154.845 57.4671" stroke="white" stroke-width="2.13333" stroke-linecap="round" stroke-linejoin="round"></path><path d="M157.112 102.578C173.944 113.068 196.085 107.929 206.577 91.0943C210.398 84.9621 199.858 71.4859 183.024 60.9947C166.19 50.5035 149.449 46.978 145.627 53.1102C135.136 69.9444 140.279 92.088 157.11 102.577L157.112 102.578ZM181.127 64.0429C198.872 75.1017 205.234 86.4596 203.529 89.1953C194.104 104.319 174.134 108.956 159.011 99.5309C143.887 90.106 139.251 70.1336 148.676 55.0103C150.381 52.2746 163.38 52.983 181.127 64.0429Z" fill="white" fill-opacity="0.8"></path><path d="M145.629 53.1113C149.451 46.9791 166.197 50.508 183.026 60.9958C199.855 71.4837 210.398 84.9621 206.577 91.0943C196.085 107.929 173.944 113.068 157.112 102.578C140.279 92.088 135.138 69.9455 145.629 53.1113Z" stroke="black" stroke-width="1.49333" stroke-miterlimit="10"></path></g><g clip-path="url(#clip7_235_49395)"><path d="M321.664 105.946C313.418 123.979 292.109 131.915 274.075 123.669C256.042 115.423 248.105 94.1154 256.352 76.0801C253.347 82.6513 265.526 94.6666 283.565 102.915C301.605 111.164 318.659 112.517 321.664 105.946Z" fill="currentColor" stroke="black" stroke-width="1.49333" stroke-miterlimit="10"></path><path d="M283.565 102.917C301.6 111.165 318.658 112.52 321.664 105.946C324.671 99.3709 312.487 87.3554 294.452 79.1083C276.417 70.8612 259.359 69.5054 256.352 76.0801C253.346 82.6548 265.529 94.6703 283.565 102.917Z" fill="currentColor" stroke="black" stroke-width="1.49333" stroke-miterlimit="10"></path><path d="M285.058 99.6522C266.041 90.9562 258.277 80.5047 259.618 77.5732C260.958 74.6417 273.942 73.6775 292.959 82.3735C311.976 91.0695 319.74 101.521 318.399 104.452C317.059 107.384 304.075 108.348 285.058 99.6522Z" fill="currentColor" stroke="black" stroke-width="1.49333" stroke-miterlimit="10"></path><path d="M321.664 105.946C313.418 123.979 292.109 131.915 274.075 123.669C256.042 115.423 248.105 94.1154 256.352 76.0801C253.347 82.6513 265.526 94.6666 283.565 102.915C301.605 111.164 318.659 112.517 321.664 105.946Z" fill="white" fill-opacity="0.2" stroke="black" stroke-width="1.49333" stroke-miterlimit="10"></path><path d="M294.453 79.1063C276.418 70.8593 259.36 69.5031 256.353 76.0781C253.347 82.6532 265.53 94.6684 283.566 102.915C301.601 111.163 318.659 112.519 321.665 105.944C324.672 99.3686 312.488 87.3534 294.453 79.1063ZM285.058 99.6522C266.041 90.9562 258.277 80.5047 259.618 77.5732C260.958 74.6417 273.942 73.6775 292.959 82.3735C311.976 91.0695 319.74 101.521 318.399 104.452C317.059 107.384 304.075 108.348 285.058 99.6522Z" fill="white" fill-opacity="0.2" stroke="black" stroke-width="1.49333" stroke-miterlimit="10"></path><path d="M294.453 79.1063C276.418 70.8593 259.36 69.5031 256.353 76.0781C253.347 82.6532 265.53 94.6684 283.566 102.915C301.601 111.163 318.659 112.519 321.665 105.944C324.672 99.3686 312.488 87.3534 294.453 79.1063Z" stroke="black" stroke-width="1.49333" stroke-miterlimit="10"></path><path d="M321.664 105.946C318.66 112.517 301.601 111.163 283.566 102.915C265.53 94.6684 253.35 82.6521 256.354 76.081C264.603 58.0418 285.904 50.1088 303.941 58.3568C321.978 66.6048 329.913 87.9064 321.664 105.946Z" fill="white" fill-opacity="0.8"></path><path opacity="0.8" d="M309.851 79.2391C311.421 79.9569 313.275 79.2663 313.993 77.6965C314.711 76.1268 314.02 74.2724 312.45 73.5546C310.88 72.8368 309.026 73.5274 308.308 75.0972C307.59 76.6669 308.281 78.5213 309.851 79.2391Z" fill="white"></path><path opacity="0.8" d="M313.55 85.2421C314.995 90.9043 314.586 97.0788 311.967 102.806" stroke="white" stroke-width="2.13333" stroke-linecap="round" stroke-linejoin="round"></path><path d="M303.941 58.3568C285.904 50.1088 264.603 58.0418 256.354 76.081C253.35 82.6521 265.528 94.6675 283.568 102.916C301.607 111.165 318.662 112.518 321.666 105.946C329.915 87.9073 321.978 66.6047 303.943 58.3577L303.941 58.3568ZM285.059 99.6502C266.044 90.9551 258.279 80.5056 259.62 77.5741C267.03 61.3683 286.242 54.2115 302.448 61.622C318.654 69.0325 325.81 88.2467 318.399 104.452C317.059 107.384 304.076 108.346 285.059 99.6502Z" fill="white" fill-opacity="0.8"></path><path d="M321.664 105.946C318.66 112.517 301.599 111.162 283.566 102.915C265.532 94.6692 253.35 82.6521 256.354 76.081C264.603 58.0418 285.904 50.1088 303.941 58.3568C321.978 66.6048 329.913 87.9064 321.664 105.946Z" stroke="black" stroke-width="1.49333" stroke-miterlimit="10"></path></g><g clip-path="url(#clip8_235_49395)"><path d="M85.0434 169.676C104.506 165.879 123.366 178.581 127.163 198.043C130.96 217.506 118.26 236.366 98.7954 240.163C105.887 238.78 108.564 221.882 104.765 202.413C100.967 182.945 92.1353 168.292 85.0434 169.676Z" fill="currentColor" stroke="black" stroke-width="1.49333" stroke-miterlimit="10"></path><path d="M104.767 202.413C100.97 182.948 92.1388 168.291 85.0431 169.676C77.9474 171.06 75.2737 187.961 79.0713 207.426C82.8688 226.89 91.6995 241.547 98.7952 240.163C105.891 238.779 108.565 221.877 104.767 202.413Z" fill="currentColor" stroke="black" stroke-width="1.49333" stroke-miterlimit="10"></path><path d="M101.244 203.1C105.248 223.624 101.272 236.022 98.1081 236.639C94.9443 237.256 86.5999 227.262 82.5957 206.738C78.5915 186.214 82.5673 173.817 85.7311 173.2C88.895 172.582 97.2394 182.576 101.244 203.1Z" fill="currentColor" stroke="black" stroke-width="1.49333" stroke-miterlimit="10"></path><path d="M85.0434 169.676C104.506 165.879 123.366 178.581 127.163 198.043C130.96 217.506 118.26 236.366 98.7954 240.163C105.887 238.78 108.564 221.882 104.765 202.413C100.967 182.945 92.1353 168.292 85.0434 169.676Z" fill="white" fill-opacity="0.2" stroke="black" stroke-width="1.49333" stroke-miterlimit="10"></path><path d="M79.0693 207.426C82.8668 226.891 91.6971 241.548 98.7932 240.164C105.889 238.779 108.563 221.878 104.765 202.413C100.968 182.949 92.1373 168.292 85.0412 169.676C77.9451 171.06 75.2718 187.962 79.0693 207.426ZM101.243 203.1C105.247 223.624 101.272 236.022 98.1078 236.639C94.944 237.256 86.5996 227.262 82.5954 206.738C78.5912 186.214 82.567 173.817 85.7308 173.2C88.8946 172.582 97.239 182.576 101.243 203.1Z" fill="white" fill-opacity="0.2" stroke="black" stroke-width="1.49333" stroke-miterlimit="10"></path><path d="M79.0693 207.426C82.8668 226.891 91.6971 241.548 98.7932 240.164C105.889 238.779 108.563 221.878 104.765 202.413C100.968 182.949 92.1373 168.292 85.0412 169.676C77.9451 171.06 75.2718 187.962 79.0693 207.426Z" stroke="black" stroke-width="1.49333" stroke-miterlimit="10"></path><path d="M85.043 169.676C92.1348 168.292 100.967 182.949 104.765 202.413C108.562 221.878 105.886 238.777 98.7946 240.161C79.3259 243.959 60.4731 231.262 56.6752 211.795C52.8773 192.329 65.5743 173.474 85.043 169.676Z" fill="white" fill-opacity="0.8"></path><path opacity="0.8" d="M70.2109 194.831C69.8803 193.137 68.239 192.031 66.5449 192.362C64.8508 192.693 63.7453 194.334 64.0759 196.028C64.4064 197.722 66.0477 198.828 67.7418 198.497C69.4359 198.166 70.5414 196.525 70.2109 194.831Z" fill="white"></path><path opacity="0.8" d="M72.937 188.328C76.6985 183.856 81.9567 180.594 88.1377 179.388" stroke="white" stroke-width="2.13333" stroke-linecap="round" stroke-linejoin="round"></path><path d="M56.6752 211.795C60.4731 231.262 79.3259 243.959 98.7946 240.161C105.886 238.777 108.563 221.88 104.764 202.411C100.966 182.942 92.1344 168.29 85.0425 169.674C65.5739 173.472 52.8773 192.329 56.6748 211.793L56.6752 211.795ZM101.241 203.101C105.245 223.623 101.271 236.02 98.107 236.637C80.6171 240.049 63.6114 228.598 60.1991 211.108C56.7869 193.618 68.2405 176.612 85.7305 173.2C88.8943 172.582 97.2366 182.577 101.241 203.101Z" fill="white" fill-opacity="0.8"></path><path d="M85.043 169.676C92.1348 168.292 100.968 182.951 104.765 202.413C108.562 221.876 105.886 238.777 98.7946 240.161C79.3259 243.959 60.4731 231.262 56.6752 211.795C52.8773 192.329 65.5743 173.474 85.043 169.676Z" stroke="black" stroke-width="1.49333" stroke-miterlimit="10"></path></g><g clip-path="url(#clip9_235_49395)"><path d="M295.218 109.697C314.001 116.053 324.078 136.437 317.722 155.22C311.367 174.003 290.984 184.081 272.199 177.724C279.044 180.04 289.748 166.695 296.106 147.906C302.464 129.116 302.063 112.013 295.218 109.697Z" fill="currentColor" stroke="black" stroke-width="1.49333" stroke-miterlimit="10"></path><path d="M296.108 147.906C302.465 129.121 302.066 112.014 295.218 109.697C288.37 107.38 277.666 120.73 271.309 139.515C264.953 158.3 265.351 175.407 272.199 177.724C279.047 180.042 289.752 166.692 296.108 147.906Z" fill="currentColor" stroke="black" stroke-width="1.49333" stroke-miterlimit="10"></path><path d="M292.707 146.756C286.005 166.563 276.403 175.357 273.35 174.323C270.297 173.29 268.008 160.473 274.71 140.666C281.413 120.858 291.014 112.065 294.068 113.098C297.121 114.131 299.41 126.948 292.707 146.756Z" fill="currentColor" stroke="black" stroke-width="1.49333" stroke-miterlimit="10"></path><path d="M295.218 109.697C314.001 116.053 324.078 136.437 317.722 155.22C311.367 174.003 290.984 184.081 272.199 177.724C279.044 180.04 289.748 166.695 296.106 147.906C302.464 129.116 302.063 112.013 295.218 109.697Z" fill="white" fill-opacity="0.2" stroke="black" stroke-width="1.49333" stroke-miterlimit="10"></path><path d="M271.307 139.514C264.951 158.299 265.349 175.406 272.197 177.724C279.046 180.041 289.75 166.691 296.106 147.906C302.463 129.121 302.065 112.014 295.216 109.696C288.368 107.379 277.664 120.729 271.307 139.514ZM292.707 146.756C286.005 166.563 276.404 175.357 273.35 174.323C270.297 173.29 268.008 160.473 274.71 140.666C281.413 120.858 291.014 112.065 294.068 113.098C297.121 114.131 299.41 126.948 292.707 146.756Z" fill="white" fill-opacity="0.2" stroke="black" stroke-width="1.49333" stroke-miterlimit="10"></path><path d="M271.307 139.514C264.951 158.299 265.349 175.406 272.197 177.724C279.046 180.041 289.75 166.691 296.106 147.906C302.463 129.121 302.065 112.014 295.216 109.696C288.368 107.379 277.664 120.729 271.307 139.514Z" stroke="black" stroke-width="1.49333" stroke-miterlimit="10"></path><path d="M295.218 109.697C302.063 112.013 302.463 129.121 296.106 147.906C289.75 166.691 279.044 180.038 272.2 177.722C253.411 171.364 243.338 150.988 249.695 132.201C256.052 113.414 276.429 103.339 295.218 109.697Z" fill="white" fill-opacity="0.8"></path><path opacity="0.8" d="M269.862 124.184C270.415 122.549 269.538 120.775 267.903 120.221C266.268 119.668 264.494 120.545 263.941 122.18C263.388 123.815 264.265 125.589 265.9 126.142C267.535 126.696 269.309 125.819 269.862 124.184Z" fill="white"></path><path opacity="0.8" d="M275.455 119.889C280.939 117.871 287.123 117.646 293.088 119.665" stroke="white" stroke-width="2.13333" stroke-linecap="round" stroke-linejoin="round"></path><path d="M249.695 132.201C243.338 150.988 253.411 171.364 272.2 177.722C279.044 180.038 289.749 166.693 296.107 147.904C302.465 129.114 302.063 112.011 295.219 109.695C276.43 103.337 256.052 113.414 249.696 132.199L249.695 132.201ZM292.705 146.755C286.003 166.56 276.404 175.355 273.351 174.321C256.471 168.61 247.384 150.231 253.096 133.352C258.808 116.472 277.188 107.386 294.067 113.098C297.121 114.131 299.408 126.947 292.705 146.755Z" fill="white" fill-opacity="0.8"></path><path d="M295.218 109.697C302.063 112.013 302.462 129.123 296.106 147.906C289.75 166.689 279.044 180.038 272.2 177.722C253.411 171.364 243.338 150.988 249.695 132.201C256.052 113.414 276.429 103.339 295.218 109.697Z" stroke="black" stroke-width="1.49333" stroke-miterlimit="10"></path></g><g clip-path="url(#clip10_235_49395)"><path d="M153.299 141.363C171.163 149.971 178.667 171.436 170.058 189.299C161.45 207.163 139.987 214.668 122.122 206.059C128.631 209.195 140.889 197.262 149.501 179.393C158.112 161.523 159.808 144.499 153.299 141.363Z" fill="currentColor" stroke="black" stroke-width="1.49333" stroke-miterlimit="10"></path><path d="M149.503 179.394C158.112 161.528 159.812 144.501 153.3 141.363C146.787 138.224 134.528 150.163 125.918 168.028C117.309 185.893 115.609 202.92 122.122 206.059C128.635 209.197 140.893 197.259 149.503 179.394Z" fill="currentColor" stroke="black" stroke-width="1.49333" stroke-miterlimit="10"></path><path d="M146.268 177.835C137.19 196.672 126.584 204.224 123.68 202.824C120.777 201.425 120.075 188.424 129.153 169.587C138.231 150.749 148.837 143.198 151.741 144.597C154.645 145.996 155.346 158.997 146.268 177.835Z" fill="currentColor" stroke="black" stroke-width="1.49333" stroke-miterlimit="10"></path><path d="M153.299 141.363C171.163 149.971 178.667 171.436 170.058 189.299C161.45 207.163 139.987 214.668 122.122 206.059C128.631 209.195 140.889 197.262 149.501 179.393C158.112 161.523 159.808 144.499 153.299 141.363Z" fill="white" fill-opacity="0.2" stroke="black" stroke-width="1.49333" stroke-miterlimit="10"></path><path d="M125.916 168.027C117.307 185.892 115.607 202.919 122.12 206.058C128.633 209.196 140.892 197.258 149.501 179.393C158.11 161.527 159.811 144.5 153.298 141.362C146.785 138.223 134.526 150.162 125.916 168.027ZM146.269 177.835C137.19 196.672 126.584 204.224 123.681 202.824C120.777 201.425 120.075 188.424 129.153 169.587C138.231 150.749 148.837 143.198 151.741 144.597C154.645 145.996 155.347 158.997 146.269 177.835Z" fill="white" fill-opacity="0.2" stroke="black" stroke-width="1.49333" stroke-miterlimit="10"></path><path d="M125.916 168.027C117.307 185.892 115.607 202.919 122.12 206.058C128.633 209.196 140.892 197.258 149.501 179.393C158.11 161.527 159.811 144.5 153.298 141.362C146.785 138.223 134.526 150.162 125.916 168.027Z" stroke="black" stroke-width="1.49333" stroke-miterlimit="10"></path><path d="M153.3 141.363C159.809 144.499 158.111 161.527 149.501 179.392C140.892 197.258 128.632 209.193 122.123 206.057C104.254 197.445 96.7525 175.989 105.363 158.122C113.973 140.255 135.431 132.751 153.3 141.363Z" fill="white" fill-opacity="0.8"></path><path opacity="0.8" d="M126.36 152.635C127.11 151.08 126.457 149.212 124.902 148.462C123.347 147.713 121.479 148.366 120.729 149.921C119.98 151.476 120.633 153.344 122.188 154.093C123.743 154.843 125.611 154.19 126.36 152.635Z" fill="white"></path><path opacity="0.8" d="M132.437 149.058C138.127 147.727 144.292 148.261 149.965 150.995" stroke="white" stroke-width="2.13333" stroke-linecap="round" stroke-linejoin="round"></path><path d="M105.363 158.122C96.7525 175.989 104.254 197.445 122.123 206.057C128.632 209.193 140.891 197.26 149.502 179.391C158.113 161.522 159.81 144.498 153.301 141.361C135.432 132.749 113.973 140.255 105.364 158.12L105.363 158.122ZM146.267 177.834C137.19 196.669 126.585 204.222 123.682 202.822C107.629 195.086 100.861 175.733 108.597 159.68C116.333 143.628 135.688 136.861 151.741 144.597C154.645 145.996 155.345 158.996 146.267 177.834Z" fill="white" fill-opacity="0.8"></path><path d="M153.3 141.363C159.809 144.499 158.11 161.529 149.501 179.392C140.893 197.256 128.632 209.193 122.123 206.057C104.254 197.445 96.7525 175.989 105.363 158.122C113.973 140.255 135.431 132.751 153.3 141.363Z" stroke="black" stroke-width="1.49333" stroke-miterlimit="10"></path></g><g clip-path="url(#clip11_235_49395)"><path d="M177.803 92.3061C187.034 109.856 180.289 131.571 162.739 140.802C145.189 150.034 123.475 143.29 114.243 125.739C117.606 132.134 134.56 129.84 152.115 120.606C169.671 111.372 181.166 98.701 177.803 92.3061Z" fill="currentColor" stroke="black" stroke-width="1.49333" stroke-miterlimit="10"></path><path d="M152.116 120.608C169.668 111.375 181.168 98.7044 177.802 92.3061C174.437 85.9078 157.48 88.2051 139.928 97.4374C122.377 106.67 110.877 119.341 114.242 125.739C117.608 132.137 134.565 129.84 152.116 120.608Z" fill="currentColor" stroke="black" stroke-width="1.49333" stroke-miterlimit="10"></path><path d="M150.445 117.43C131.938 127.165 118.921 126.92 117.42 124.067C115.919 121.215 123.093 110.35 141.6 100.615C160.107 90.8802 173.124 91.1246 174.625 93.9775C176.125 96.8303 168.952 107.695 150.445 117.43Z" fill="currentColor" stroke="black" stroke-width="1.49333" stroke-miterlimit="10"></path><path d="M177.803 92.3061C187.034 109.856 180.289 131.571 162.739 140.802C145.189 150.034 123.475 143.29 114.243 125.739C117.606 132.134 134.56 129.84 152.115 120.606C169.671 111.372 181.166 98.701 177.803 92.3061Z" fill="white" fill-opacity="0.2" stroke="black" stroke-width="1.49333" stroke-miterlimit="10"></path><path d="M139.927 97.4354C122.376 106.668 110.876 119.338 114.241 125.737C117.607 132.136 134.564 129.838 152.115 120.606C169.667 111.374 181.167 98.7028 177.801 92.3041C174.435 85.9055 157.479 88.2032 139.927 97.4354ZM150.445 117.43C131.938 127.165 118.921 126.92 117.42 124.067C115.919 121.215 123.093 110.35 141.6 100.615C160.107 90.8802 173.124 91.1246 174.625 93.9775C176.125 96.8303 168.952 107.695 150.445 117.43Z" fill="white" fill-opacity="0.2" stroke="black" stroke-width="1.49333" stroke-miterlimit="10"></path><path d="M139.927 97.4355C122.376 106.668 110.876 119.338 114.241 125.737C117.607 132.136 134.564 129.838 152.115 120.606C169.667 111.374 181.167 98.7029 177.801 92.3042C174.435 85.9056 157.479 88.2033 139.927 97.4355Z" stroke="black" stroke-width="1.49333" stroke-miterlimit="10"></path><path d="M177.802 92.3062C181.166 98.701 169.667 111.374 152.115 120.606C134.564 129.838 117.608 132.133 114.244 125.738C105.01 108.183 111.753 86.4758 129.306 77.2427C146.859 68.0095 168.568 74.7509 177.802 92.3062Z" fill="white" fill-opacity="0.8"></path><path opacity="0.8" d="M149.445 85.3304C150.973 84.5268 151.56 82.6371 150.756 81.1094C149.952 79.5818 148.063 78.9948 146.535 79.7984C145.007 80.6019 144.42 82.4917 145.224 84.0193C146.028 85.5469 147.917 86.1339 149.445 85.3304Z" fill="white"></path><path opacity="0.8" d="M156.457 86.0724C161.822 88.3896 166.458 92.4881 169.39 98.0616" stroke="white" stroke-width="2.13333" stroke-linecap="round" stroke-linejoin="round"></path><path d="M129.306 77.2427C111.753 86.4758 105.01 108.183 114.244 125.738C117.608 132.133 134.562 129.839 152.117 120.605C169.672 111.371 181.168 98.7 177.804 92.3052C168.57 74.7499 146.859 68.0095 129.308 77.2417L129.306 77.2427ZM150.444 117.428C131.939 127.162 118.923 126.919 117.422 124.067C109.126 108.296 115.206 88.7159 130.977 80.4203C146.748 72.1246 166.329 78.2066 174.625 93.9776C176.125 96.8305 168.951 107.694 150.444 117.428Z" fill="white" fill-opacity="0.8"></path><path d="M177.802 92.3062C181.166 98.701 169.665 111.375 152.115 120.606C134.566 129.837 117.608 132.133 114.244 125.738C105.01 108.183 111.753 86.4759 129.306 77.2427C146.859 68.0095 168.568 74.7509 177.802 92.3062Z" stroke="black" stroke-width="1.49333" stroke-miterlimit="10"></path></g><g clip-path="url(#clip12_235_49395)"><path d="M176.622 77.2046C169.342 58.7597 178.396 37.9008 196.841 30.6214C215.285 23.3419 236.144 32.3936 243.424 50.8405C240.771 44.1193 223.669 44.5665 205.218 51.8483C186.767 59.1301 173.969 70.4835 176.622 77.2046Z" fill="currentColor" stroke="black" stroke-width="1.49333" stroke-miterlimit="10"></path><path d="M205.217 51.8463C186.77 59.1265 173.967 70.4798 176.621 77.2045C179.275 83.9293 196.381 83.4789 214.828 76.1987C233.275 68.9184 246.078 57.5651 243.424 50.8404C240.77 44.1157 223.664 44.566 205.217 51.8463Z" fill="currentColor" stroke="black" stroke-width="1.49333" stroke-miterlimit="10"></path><path d="M206.535 55.186C225.986 47.5095 238.901 49.16 240.084 52.1584C241.267 55.1568 232.961 65.1824 213.51 72.8589C194.059 80.5354 181.144 78.8848 179.961 75.8864C178.778 72.888 187.084 62.8624 206.535 55.186Z" fill="currentColor" stroke="black" stroke-width="1.49333" stroke-miterlimit="10"></path><path d="M176.621 77.2046C169.342 58.7597 178.395 37.9008 196.84 30.6214C215.285 23.3419 236.143 32.3936 243.423 50.8405C240.771 44.1193 223.668 44.5665 205.218 51.8483C186.767 59.1301 173.968 70.4835 176.621 77.2046Z" fill="white" fill-opacity="0.2" stroke="black" stroke-width="1.49333" stroke-miterlimit="10"></path><path d="M214.828 76.2007C233.275 68.9205 246.078 57.5676 243.424 50.8425C240.77 44.1174 223.664 44.5682 205.217 51.8484C186.771 59.1286 173.968 70.4815 176.622 77.2066C179.276 83.9317 196.382 83.4809 214.828 76.2007ZM206.535 55.1861C225.986 47.5096 238.9 49.1602 240.084 52.1586C241.267 55.157 232.96 65.1826 213.51 72.859C194.059 80.5355 181.144 78.885 179.961 75.8866C178.777 72.8882 187.084 62.8626 206.535 55.1861Z" fill="white" fill-opacity="0.2" stroke="black" stroke-width="1.49333" stroke-miterlimit="10"></path><path d="M214.829 76.2006C233.276 68.9204 246.079 57.5674 243.425 50.8424C240.77 44.1173 223.665 44.568 205.218 51.8482C186.771 59.1285 173.968 70.4814 176.622 77.2065C179.276 83.9316 196.382 83.4808 214.829 76.2006Z" stroke="black" stroke-width="1.49333" stroke-miterlimit="10"></path><path d="M176.622 77.2045C173.969 70.4834 186.771 59.1284 205.218 51.8482C223.665 44.568 240.769 44.12 243.422 50.8412C250.704 69.292 241.654 90.1426 223.205 97.4236C204.756 104.705 183.903 95.6553 176.622 77.2045Z" fill="white" fill-opacity="0.8"></path><path opacity="0.8" d="M204.058 87.2056C202.452 87.8393 201.665 89.6545 202.298 91.2601C202.932 92.8656 204.747 93.6535 206.353 93.0199C207.958 92.3862 208.746 90.571 208.112 88.9654C207.479 87.3599 205.664 86.572 204.058 87.2056Z" fill="white"></path><path opacity="0.8" d="M197.167 85.7096C192.085 82.8259 187.919 78.2501 185.607 72.3922" stroke="white" stroke-width="2.13333" stroke-linecap="round" stroke-linejoin="round"></path><path d="M223.205 97.4236C241.654 90.1426 250.704 69.292 243.422 50.8412C240.769 44.12 223.667 44.5672 205.216 51.849C186.765 59.1308 173.967 70.4842 176.62 77.2053C183.901 95.6561 204.756 104.705 223.203 97.4244L223.205 97.4236ZM206.536 55.1879C225.985 47.5123 238.899 49.1608 240.082 52.1592C246.624 68.7348 238.462 87.5422 221.887 94.0839C205.311 100.626 186.503 92.462 179.961 75.8864C178.778 72.888 187.085 62.8644 206.536 55.1879Z" fill="white" fill-opacity="0.8"></path><path d="M176.622 77.2045C173.969 70.4834 186.773 59.1276 205.218 51.8482C223.663 44.5688 240.769 44.12 243.422 50.8412C250.704 69.292 241.654 90.1426 223.205 97.4236C204.756 104.705 183.903 95.6553 176.622 77.2045Z" stroke="black" stroke-width="1.49333" stroke-miterlimit="10"></path></g><g clip-path="url(#clip13_235_49395)"><path d="M80.9253 84.8259C69.7486 68.4465 73.9673 46.1022 90.3467 34.9255C106.726 23.7488 129.069 27.9658 140.247 44.3469C136.174 38.3784 119.594 42.5952 103.209 53.7755C86.8246 64.9558 76.8527 78.8574 80.9253 84.8259Z" fill="currentColor" stroke="black" stroke-width="1.49333" stroke-miterlimit="10"></path><path d="M103.208 53.7738C86.827 64.9517 76.8507 78.8543 80.9256 84.8259C85.0004 90.7976 101.583 86.5771 117.965 75.3991C134.346 64.2212 144.322 50.3187 140.247 44.347C136.172 38.3753 119.59 42.5958 103.208 53.7738Z" fill="currentColor" stroke="black" stroke-width="1.49333" stroke-miterlimit="10"></path><path d="M105.232 56.7395C122.504 44.9532 135.464 43.7081 137.281 46.3707C139.098 49.0333 133.213 60.6471 115.941 72.4334C98.6678 84.2197 85.7079 85.4649 83.891 82.8022C82.0741 80.1396 87.9589 68.5258 105.232 56.7395Z" fill="currentColor" stroke="black" stroke-width="1.49333" stroke-miterlimit="10"></path><path d="M80.9253 84.8259C69.7486 68.4465 73.9673 46.1022 90.3467 34.9255C106.726 23.7488 129.069 27.9658 140.247 44.3469C136.174 38.3784 119.594 42.5952 103.209 53.7755C86.8246 64.9558 76.8527 78.8574 80.9253 84.8259Z" fill="white" fill-opacity="0.2" stroke="black" stroke-width="1.49333" stroke-miterlimit="10"></path><path d="M117.966 75.401C134.347 64.2231 144.324 50.3208 140.249 44.3488C136.174 38.3768 119.591 42.5977 103.21 53.7756C86.8286 64.9535 76.852 78.8558 80.927 84.8278C85.0021 90.7998 101.585 86.5789 117.966 75.401ZM105.232 56.7396C122.505 44.9533 135.465 43.7081 137.282 46.3708C139.099 49.0334 133.214 60.6472 115.941 72.4335C98.6684 84.2198 85.7085 85.4649 83.8916 82.8023C82.0747 80.1397 87.9594 68.5259 105.232 56.7396Z" fill="white" fill-opacity="0.2" stroke="black" stroke-width="1.49333" stroke-miterlimit="10"></path><path d="M117.966 75.401C134.347 64.2231 144.324 50.3208 140.249 44.3488C136.174 38.3768 119.591 42.5977 103.21 53.7756C86.8286 64.9535 76.852 78.8558 80.927 84.8278C85.0021 90.7998 101.585 86.5789 117.966 75.401Z" stroke="black" stroke-width="1.49333" stroke-miterlimit="10"></path><path d="M80.9254 84.826C76.8527 78.8576 86.8282 64.9535 103.209 53.7756C119.59 42.5978 136.173 38.3798 140.245 44.3483C151.426 60.733 147.209 83.0683 130.826 94.2474C114.443 105.427 92.1057 101.211 80.9254 84.826Z" fill="white" fill-opacity="0.8"></path><path opacity="0.8" d="M109.894 88.5145C108.469 89.4874 108.101 91.4319 109.074 92.8577C110.047 94.2835 111.992 94.6506 113.417 93.6777C114.843 92.7048 115.21 90.7603 114.237 89.3346C113.265 87.9088 111.32 87.5417 109.894 88.5145Z" fill="white"></path><path opacity="0.8" d="M102.844 88.5789C97.2492 86.8901 92.1749 83.3484 88.6253 78.1465" stroke="white" stroke-width="2.13333" stroke-linecap="round" stroke-linejoin="round"></path><path d="M130.826 94.2474C147.209 83.0683 151.426 60.733 140.245 44.3483C136.173 38.3798 119.592 42.5965 103.208 53.7768C86.8229 64.9571 76.851 78.8588 80.9236 84.8272C92.1039 101.212 114.443 105.427 130.824 94.2486L130.826 94.2474ZM105.233 56.7414C122.504 44.9563 135.463 43.7093 137.28 46.372C147.324 61.0914 143.521 81.2377 128.802 91.2817C114.083 101.326 93.9351 97.5217 83.8911 82.8023C82.0743 80.1397 87.9602 68.5277 105.233 56.7414Z" fill="white" fill-opacity="0.8"></path><path d="M80.9254 84.826C76.8527 78.8576 86.8299 64.9523 103.209 53.7756C119.589 42.599 136.173 38.3798 140.245 44.3483C151.426 60.733 147.209 83.0683 130.826 94.2474C114.443 105.427 92.1057 101.211 80.9254 84.826Z" stroke="black" stroke-width="1.49333" stroke-miterlimit="10"></path></g><g clip-path="url(#clip14_235_49395)"><path d="M303.209 206.92C299.376 226.376 280.492 239.043 261.036 235.209C241.581 231.376 228.914 212.494 232.748 193.036C231.351 200.126 245.987 208.985 265.448 212.82C284.91 216.654 301.812 214.01 303.209 206.92Z" fill="currentColor" stroke="black" stroke-width="1.49333" stroke-miterlimit="10"></path><path d="M265.448 212.822C284.905 216.656 301.812 214.014 303.209 206.92C304.607 199.827 289.967 190.969 270.509 187.135C251.052 183.301 234.145 185.943 232.748 193.036C231.35 200.13 245.99 208.988 265.448 212.822Z" fill="currentColor" stroke="black" stroke-width="1.49333" stroke-miterlimit="10"></path><path d="M266.142 209.299C245.626 205.256 235.647 196.893 236.27 193.731C236.894 190.568 249.299 186.615 269.815 190.658C290.332 194.701 300.31 203.064 299.687 206.226C299.064 209.389 286.658 213.342 266.142 209.299Z" fill="currentColor" stroke="black" stroke-width="1.49333" stroke-miterlimit="10"></path><path d="M303.209 206.92C299.376 226.376 280.492 239.043 261.036 235.209C241.581 231.376 228.914 212.494 232.748 193.036C231.351 200.126 245.987 208.985 265.448 212.82C284.91 216.654 301.812 214.01 303.209 206.92Z" fill="white" fill-opacity="0.2" stroke="black" stroke-width="1.49333" stroke-miterlimit="10"></path><path d="M270.51 187.133C251.052 183.299 234.146 185.941 232.748 193.034C231.35 200.128 245.991 208.986 265.448 212.82C284.906 216.653 301.812 214.012 303.21 206.918C304.608 199.825 289.967 190.967 270.51 187.133ZM266.142 209.299C245.626 205.256 235.647 196.893 236.27 193.731C236.894 190.568 249.299 186.615 269.815 190.658C290.332 194.701 300.31 203.064 299.687 206.226C299.064 209.389 286.658 213.342 266.142 209.299Z" fill="white" fill-opacity="0.2" stroke="black" stroke-width="1.49333" stroke-miterlimit="10"></path><path d="M270.51 187.133C251.052 183.299 234.146 185.941 232.748 193.034C231.35 200.128 245.991 208.985 265.448 212.819C284.906 216.653 301.812 214.012 303.21 206.918C304.608 199.825 289.967 190.967 270.51 187.133Z" stroke="black" stroke-width="1.49333" stroke-miterlimit="10"></path><path d="M303.21 206.92C301.813 214.01 284.906 216.653 265.448 212.819C245.991 208.985 231.353 200.126 232.75 193.037C236.585 173.575 255.461 160.913 274.921 164.747C294.38 168.582 307.044 187.459 303.21 206.92Z" fill="white" fill-opacity="0.8"></path><path opacity="0.8" d="M285.518 183.687C287.211 184.02 288.855 182.918 289.188 181.225C289.522 179.531 288.42 177.888 286.726 177.554C285.033 177.22 283.389 178.323 283.055 180.016C282.722 181.71 283.824 183.353 285.518 183.687Z" fill="white"></path><path opacity="0.8" d="M290.509 188.667C293.23 193.839 294.265 199.94 293.048 206.118" stroke="white" stroke-width="2.13333" stroke-linecap="round" stroke-linejoin="round"></path><path d="M274.921 164.747C255.461 160.913 236.585 173.575 232.75 193.037C231.353 200.126 245.989 208.985 265.45 212.82C284.912 216.655 301.815 214.01 303.212 206.921C307.046 187.459 294.38 168.582 274.923 164.748L274.921 164.747ZM266.143 209.297C245.628 205.255 235.649 196.894 236.273 193.731C239.718 176.247 256.743 164.825 274.227 168.27C291.71 171.715 303.132 188.743 299.687 206.226C299.064 209.389 286.659 213.339 266.143 209.297Z" fill="white" fill-opacity="0.8"></path><path d="M303.209 206.92C301.813 214.01 284.904 216.653 265.448 212.819C245.993 208.986 231.353 200.126 232.75 193.037C236.585 173.575 255.461 160.913 274.921 164.747C294.38 168.582 307.044 187.459 303.209 206.92Z" stroke="black" stroke-width="1.49333" stroke-miterlimit="10"></path></g><g clip-path="url(#clip15_235_49395)"><path d="M178.803 188.306C188.034 205.856 181.289 227.571 163.739 236.802C146.189 246.034 124.475 239.29 115.243 221.739C118.606 228.134 135.56 225.84 153.115 216.606C170.671 207.372 182.166 194.701 178.803 188.306Z" fill="currentColor" stroke="black" stroke-width="1.49333" stroke-miterlimit="10"></path><path d="M153.116 216.608C170.668 207.375 182.168 194.704 178.802 188.306C175.437 181.908 158.48 184.205 140.928 193.437C123.377 202.67 111.877 215.341 115.242 221.739C118.608 228.137 135.565 225.84 153.116 216.608Z" fill="currentColor" stroke="black" stroke-width="1.49333" stroke-miterlimit="10"></path><path d="M151.445 213.43C132.938 223.165 119.921 222.92 118.42 220.067C116.919 217.215 124.093 206.35 142.6 196.615C161.107 186.88 174.124 187.125 175.625 189.977C177.125 192.83 169.952 203.695 151.445 213.43Z" fill="currentColor" stroke="black" stroke-width="1.49333" stroke-miterlimit="10"></path><path d="M178.803 188.306C188.034 205.856 181.289 227.571 163.739 236.802C146.189 246.034 124.475 239.29 115.243 221.739C118.606 228.134 135.56 225.84 153.115 216.606C170.671 207.372 182.166 194.701 178.803 188.306Z" fill="white" fill-opacity="0.2" stroke="black" stroke-width="1.49333" stroke-miterlimit="10"></path><path d="M140.927 193.435C123.376 202.668 111.876 215.338 115.241 221.737C118.607 228.136 135.564 225.838 153.115 216.606C170.667 207.374 182.167 194.703 178.801 188.304C175.435 181.905 158.479 184.203 140.927 193.435ZM151.445 213.43C132.938 223.165 119.921 222.92 118.42 220.067C116.919 217.215 124.093 206.35 142.6 196.615C161.107 186.88 174.124 187.125 175.625 189.977C177.125 192.83 169.952 203.695 151.445 213.43Z" fill="white" fill-opacity="0.2" stroke="black" stroke-width="1.49333" stroke-miterlimit="10"></path><path d="M140.927 193.436C123.376 202.668 111.876 215.338 115.241 221.737C118.607 228.136 135.564 225.838 153.115 216.606C170.667 207.374 182.167 194.703 178.801 188.304C175.435 181.906 158.479 184.203 140.927 193.436Z" stroke="black" stroke-width="1.49333" stroke-miterlimit="10"></path><path d="M178.802 188.306C182.166 194.701 170.667 207.374 153.115 216.606C135.564 225.838 118.608 228.133 115.244 221.738C106.01 204.183 112.753 182.476 130.306 173.243C147.859 164.009 169.568 170.751 178.802 188.306Z" fill="white" fill-opacity="0.8"></path><path opacity="0.8" d="M150.445 181.33C151.973 180.527 152.56 178.637 151.756 177.109C150.952 175.582 149.063 174.995 147.535 175.798C146.007 176.602 145.42 178.492 146.224 180.019C147.028 181.547 148.917 182.134 150.445 181.33Z" fill="white"></path><path opacity="0.8" d="M157.457 182.072C162.822 184.39 167.458 188.488 170.39 194.062" stroke="white" stroke-width="2.13333" stroke-linecap="round" stroke-linejoin="round"></path><path d="M130.306 173.243C112.753 182.476 106.01 204.183 115.244 221.738C118.608 228.133 135.562 225.839 153.117 216.605C170.672 207.371 182.168 194.7 178.804 188.305C169.57 170.75 147.859 164.009 130.308 173.242L130.306 173.243ZM151.444 213.428C132.939 223.162 119.923 222.919 118.422 220.067C110.126 204.296 116.206 184.716 131.977 176.42C147.748 168.125 167.329 174.207 175.625 189.978C177.125 192.83 169.951 203.694 151.444 213.428Z" fill="white" fill-opacity="0.8"></path><path d="M178.802 188.306C182.166 194.701 170.665 207.375 153.115 216.606C135.566 225.837 118.608 228.133 115.244 221.738C106.01 204.183 112.753 182.476 130.306 173.243C147.859 164.009 169.568 170.751 178.802 188.306Z" stroke="black" stroke-width="1.49333" stroke-miterlimit="10"></path></g><g clip-path="url(#clip16_235_49395)"><path d="M131.803 109.306C141.034 126.856 134.289 148.571 116.739 157.802C99.1895 167.034 77.4749 160.29 68.2427 142.739C71.6064 149.134 88.5603 146.84 106.115 137.606C123.671 128.372 135.166 115.701 131.803 109.306Z" fill="currentColor" stroke="black" stroke-width="1.49333" stroke-miterlimit="10"></path><path d="M106.116 137.608C123.668 128.375 135.168 115.704 131.802 109.306C128.437 102.908 111.48 105.205 93.9284 114.437C76.3768 123.67 64.8768 136.341 68.2423 142.739C71.6079 149.137 88.5646 146.84 106.116 137.608Z" fill="currentColor" stroke="black" stroke-width="1.49333" stroke-miterlimit="10"></path><path d="M104.445 134.43C85.9379 144.165 72.9206 143.92 71.42 141.067C69.9194 138.215 77.093 127.35 95.5999 117.615C114.107 107.88 127.124 108.125 128.625 110.977C130.125 113.83 122.952 124.695 104.445 134.43Z" fill="currentColor" stroke="black" stroke-width="1.49333" stroke-miterlimit="10"></path><path d="M131.803 109.306C141.034 126.856 134.289 148.571 116.739 157.802C99.1895 167.034 77.4749 160.29 68.2427 142.739C71.6064 149.134 88.5603 146.84 106.115 137.606C123.671 128.372 135.166 115.701 131.803 109.306Z" fill="white" fill-opacity="0.2" stroke="black" stroke-width="1.49333" stroke-miterlimit="10"></path><path d="M93.9274 114.435C76.3759 123.668 64.8756 136.338 68.2413 142.737C71.6071 149.136 88.5637 146.838 106.115 137.606C123.667 128.374 135.167 115.703 131.801 109.304C128.435 102.905 111.479 105.203 93.9274 114.435ZM104.445 134.43C85.9379 144.165 72.9206 143.92 71.4199 141.067C69.9193 138.215 77.093 127.35 95.5998 117.615C114.107 107.88 127.124 108.125 128.625 110.977C130.125 113.83 122.952 124.695 104.445 134.43Z" fill="white" fill-opacity="0.2" stroke="black" stroke-width="1.49333" stroke-miterlimit="10"></path><path d="M93.9274 114.436C76.3759 123.668 64.8756 136.338 68.2413 142.737C71.6071 149.136 88.5637 146.838 106.115 137.606C123.667 128.374 135.167 115.703 131.801 109.304C128.435 102.906 111.479 105.203 93.9274 114.436Z" stroke="black" stroke-width="1.49333" stroke-miterlimit="10"></path><path d="M131.802 109.306C135.166 115.701 123.667 128.374 106.115 137.606C88.5637 146.838 71.608 149.133 68.2443 142.738C59.0101 125.183 65.7525 103.476 83.3059 94.2427C100.859 85.0095 122.568 91.7509 131.802 109.306Z" fill="white" fill-opacity="0.8"></path><path opacity="0.8" d="M103.445 102.33C104.973 101.527 105.56 99.6371 104.756 98.1094C103.952 96.5818 102.063 95.9948 100.535 96.7984C99.0074 97.6019 98.4204 99.4917 99.224 101.019C100.028 102.547 101.917 103.134 103.445 102.33Z" fill="white"></path><path opacity="0.8" d="M110.457 103.072C115.822 105.39 120.458 109.488 123.39 115.062" stroke="white" stroke-width="2.13333" stroke-linecap="round" stroke-linejoin="round"></path><path d="M83.3059 94.2427C65.7525 103.476 59.0101 125.183 68.2443 142.738C71.608 149.133 88.5619 146.839 106.117 137.605C123.672 128.371 135.168 115.7 131.804 109.305C122.57 91.7499 100.859 85.0095 83.3078 94.2417L83.3059 94.2427ZM104.444 134.428C85.9388 144.162 72.9225 143.919 71.4219 141.067C63.1262 125.296 69.2063 105.716 84.9773 97.4203C100.748 89.1246 120.329 95.2066 128.625 110.978C130.125 113.83 122.951 124.694 104.444 134.428Z" fill="white" fill-opacity="0.8"></path><path d="M131.802 109.306C135.166 115.701 123.665 128.375 106.115 137.606C88.5656 146.837 71.608 149.133 68.2443 142.738C59.0101 125.183 65.7525 103.476 83.3059 94.2427C100.859 85.0095 122.568 91.7509 131.802 109.306Z" stroke="black" stroke-width="1.49333" stroke-miterlimit="10"></path></g><g clip-path="url(#clip17_235_49395)"><path d="M199.455 130.173C188.583 113.59 193.213 91.3278 209.796 80.4552C226.378 69.5826 248.64 74.2111 259.514 90.7957C255.552 84.7531 238.896 88.6632 222.308 99.5393C205.72 110.415 195.493 124.131 199.455 130.173Z" fill="currentColor" stroke="black" stroke-width="1.49333" stroke-miterlimit="10"></path><path d="M222.307 99.5376C205.722 110.411 195.491 124.127 199.455 130.173C203.419 136.219 220.077 132.305 236.662 121.431C253.246 110.558 263.477 96.8416 259.513 90.7957C255.549 84.7499 238.892 88.6637 222.307 99.5376Z" fill="currentColor" stroke="black" stroke-width="1.49333" stroke-miterlimit="10"></path><path d="M224.276 102.54C241.763 91.0745 254.744 90.0686 256.511 92.7643C258.279 95.46 252.181 106.963 234.694 118.429C217.206 129.895 204.226 130.9 202.458 128.205C200.691 125.509 206.789 114.006 224.276 102.54Z" fill="currentColor" stroke="black" stroke-width="1.49333" stroke-miterlimit="10"></path><path d="M199.455 130.173C188.583 113.59 193.213 91.3278 209.796 80.4552C226.378 69.5826 248.64 74.2111 259.514 90.7957C255.552 84.7531 238.896 88.6632 222.308 99.5393C205.72 110.415 195.493 124.131 199.455 130.173Z" fill="white" fill-opacity="0.2" stroke="black" stroke-width="1.49333" stroke-miterlimit="10"></path><path d="M236.663 121.433C253.248 110.559 263.479 96.8436 259.515 90.7974C255.551 84.7513 238.893 88.6655 222.308 99.5393C205.724 110.413 195.492 124.129 199.456 130.175C203.421 136.221 220.079 132.307 236.663 121.433ZM224.276 102.54C241.763 91.0744 254.744 90.0686 256.511 92.7643C258.279 95.46 252.181 106.963 234.693 118.429C217.206 129.894 204.225 130.9 202.458 128.205C200.69 125.509 206.788 114.006 224.276 102.54Z" fill="white" fill-opacity="0.2" stroke="black" stroke-width="1.49333" stroke-miterlimit="10"></path><path d="M236.663 121.433C253.248 110.56 263.479 96.8437 259.515 90.7975C255.551 84.7514 238.893 88.6656 222.308 99.5394C205.724 110.413 195.492 124.129 199.456 130.175C203.421 136.221 220.079 132.307 236.663 121.433Z" stroke="black" stroke-width="1.49333" stroke-miterlimit="10"></path><path d="M199.455 130.173C195.493 124.131 205.724 110.413 222.308 99.5394C238.893 88.6656 255.55 84.7543 259.512 90.7969C270.388 107.385 265.76 129.639 249.173 140.514C232.587 151.389 210.331 146.762 199.455 130.173Z" fill="white" fill-opacity="0.8"></path><path opacity="0.8" d="M228.351 134.396C226.908 135.342 226.505 137.28 227.451 138.723C228.398 140.167 230.335 140.57 231.778 139.623C233.222 138.677 233.625 136.739 232.678 135.296C231.732 133.852 229.795 133.449 228.351 134.396Z" fill="white"></path><path opacity="0.8" d="M221.3 134.33C215.738 132.538 210.73 128.904 207.277 123.637" stroke="white" stroke-width="2.13333" stroke-linecap="round" stroke-linejoin="round"></path><path d="M249.173 140.514C265.76 129.639 270.388 107.385 259.512 90.7969C255.55 84.7543 238.895 88.6645 222.306 99.5406C205.718 110.417 195.492 124.132 199.453 130.175C210.33 146.763 232.587 151.389 249.171 140.515L249.173 140.514ZM224.277 102.542C241.762 91.0775 254.742 90.0699 256.509 92.7656C266.28 107.668 262.107 127.741 247.205 137.511C232.302 147.282 212.228 143.107 202.458 128.205C200.69 125.509 206.789 114.008 224.277 102.542Z" fill="white" fill-opacity="0.8"></path><path d="M199.455 130.173C195.493 124.131 205.725 110.412 222.308 99.5394C238.891 88.6668 255.55 84.7543 259.512 90.7969C270.388 107.385 265.76 129.639 249.173 140.514C232.587 151.389 210.331 146.762 199.455 130.173Z" stroke="black" stroke-width="1.49333" stroke-miterlimit="10"></path></g><g clip-path="url(#clip18_235_49395)"><path d="M103.66 206.103C90.3621 220.812 67.6519 221.957 52.9421 208.66C38.2323 195.362 37.0858 172.654 50.3848 157.942C45.5393 163.302 53.5309 178.43 68.2454 191.731C82.9599 205.033 98.8142 211.463 103.66 206.103Z" fill="currentColor" stroke="black" stroke-width="1.49333" stroke-miterlimit="10"></path><path d="M68.244 191.733C82.9555 205.032 98.8116 211.466 103.66 206.103C108.508 200.74 100.512 185.611 85.8005 172.312C71.0891 159.013 55.2329 152.579 50.3848 157.942C45.5368 163.305 53.5326 178.434 68.244 191.733Z" fill="currentColor" stroke="black" stroke-width="1.49333" stroke-miterlimit="10"></path><path d="M70.6519 189.07C55.1398 175.047 50.8868 162.741 53.0484 160.35C55.2101 157.959 67.8808 160.952 83.393 174.975C98.9051 188.998 103.158 201.304 100.996 203.695C98.8348 206.086 86.164 203.092 70.6519 189.07Z" fill="currentColor" stroke="black" stroke-width="1.49333" stroke-miterlimit="10"></path><path d="M103.66 206.103C90.3621 220.812 67.6519 221.957 52.9421 208.66C38.2323 195.362 37.0858 172.654 50.3848 157.942C45.5393 163.302 53.5309 178.43 68.2454 191.731C82.9599 205.033 98.8142 211.463 103.66 206.103Z" fill="white" fill-opacity="0.2" stroke="black" stroke-width="1.49333" stroke-miterlimit="10"></path><path d="M85.802 172.31C71.0906 159.011 55.2347 152.578 50.3863 157.941C45.538 163.304 53.5341 178.432 68.2455 191.731C82.9569 205.03 98.8128 211.464 103.661 206.101C108.51 200.738 100.513 185.609 85.802 172.31ZM70.6518 189.07C55.1397 175.047 50.8866 162.741 53.0483 160.35C55.21 157.959 67.8807 160.953 83.3928 174.975C98.905 188.998 103.158 201.304 100.996 203.695C98.8347 206.086 86.1639 203.092 70.6518 189.07Z" fill="white" fill-opacity="0.2" stroke="black" stroke-width="1.49333" stroke-miterlimit="10"></path><path d="M85.802 172.31C71.0906 159.011 55.2347 152.577 50.3863 157.941C45.538 163.304 53.5341 178.432 68.2455 191.731C82.9569 205.03 98.8128 211.464 103.661 206.101C108.51 200.738 100.513 185.609 85.802 172.31Z" stroke="black" stroke-width="1.49333" stroke-miterlimit="10"></path><path d="M103.66 206.103C98.814 211.463 82.9566 205.03 68.2453 191.731C53.5339 178.432 45.5407 163.304 50.3862 157.944C63.6881 143.229 86.3892 142.085 101.102 155.385C115.815 168.685 116.961 191.388 103.66 206.103Z" fill="white" fill-opacity="0.8"></path><path opacity="0.8" d="M100.444 177.077C101.725 178.235 103.701 178.135 104.858 176.855C106.016 175.574 105.916 173.598 104.636 172.441C103.355 171.283 101.379 171.383 100.222 172.663C99.064 173.944 99.1637 175.92 100.444 177.077Z" fill="white"></path><path opacity="0.8" d="M102.162 183.916C101.834 189.751 99.5826 195.515 95.3595 200.186" stroke="white" stroke-width="2.13333" stroke-linecap="round" stroke-linejoin="round"></path><path d="M101.102 155.385C86.3892 142.085 63.6881 143.229 50.3862 157.944C45.5407 163.304 53.5323 178.431 68.2468 191.733C82.9614 205.035 98.8156 211.464 103.661 206.104C116.963 191.389 115.815 168.685 101.104 155.386L101.102 155.385ZM70.653 189.068C55.1424 175.047 50.888 162.743 53.0496 160.352C64.9996 147.133 85.4754 146.099 98.6944 158.048C111.913 169.998 112.946 190.476 100.996 203.695C98.8344 206.086 86.1651 203.091 70.653 189.068Z" fill="white" fill-opacity="0.8"></path><path d="M103.66 206.103C98.814 211.463 82.955 205.029 68.2453 191.731C53.5355 178.434 45.5407 163.304 50.3862 157.944C63.6881 143.229 86.3892 142.085 101.102 155.385C115.815 168.685 116.961 191.388 103.66 206.103Z" stroke="black" stroke-width="1.49333" stroke-miterlimit="10"></path></g><g clip-path="url(#clip19_235_49395)"><path d="M266.667 172.944C258.421 190.978 237.112 198.914 219.078 190.668C201.045 182.421 193.108 161.114 201.355 143.079C198.35 149.65 210.529 161.665 228.568 169.914C246.607 178.163 263.662 179.515 266.667 172.944Z" fill="currentColor" stroke="black" stroke-width="1.49333" stroke-miterlimit="10"></path><path d="M228.568 169.916C246.603 178.163 263.661 179.519 266.667 172.944C269.674 166.37 257.49 154.354 239.455 146.107C221.419 137.86 204.362 136.504 201.355 143.079C198.349 149.653 210.532 161.669 228.568 169.916Z" fill="currentColor" stroke="black" stroke-width="1.49333" stroke-miterlimit="10"></path><path d="M230.061 166.651C211.044 157.955 203.28 147.503 204.621 144.572C205.961 141.64 218.945 140.676 237.962 149.372C256.979 158.068 264.743 168.52 263.402 171.451C262.062 174.383 249.078 175.347 230.061 166.651Z" fill="currentColor" stroke="black" stroke-width="1.49333" stroke-miterlimit="10"></path><path d="M266.667 172.944C258.421 190.978 237.112 198.914 219.078 190.668C201.045 182.421 193.108 161.114 201.355 143.079C198.35 149.65 210.529 161.665 228.568 169.914C246.607 178.163 263.662 179.515 266.667 172.944Z" fill="white" fill-opacity="0.2" stroke="black" stroke-width="1.49333" stroke-miterlimit="10"></path><path d="M239.456 146.105C221.421 137.858 204.363 136.502 201.356 143.077C198.35 149.652 210.533 161.667 228.569 169.914C246.604 178.161 263.662 179.517 266.668 172.942C269.675 166.367 257.491 154.352 239.456 146.105ZM230.061 166.651C211.044 157.955 203.28 147.503 204.62 144.572C205.961 141.64 218.945 140.676 237.962 149.372C256.979 158.068 264.743 168.52 263.402 171.451C262.062 174.383 249.078 175.347 230.061 166.651Z" fill="white" fill-opacity="0.2" stroke="black" stroke-width="1.49333" stroke-miterlimit="10"></path><path d="M239.456 146.105C221.421 137.858 204.363 136.502 201.356 143.077C198.35 149.652 210.533 161.667 228.569 169.914C246.604 178.161 263.662 179.517 266.668 172.942C269.675 166.367 257.491 154.352 239.456 146.105Z" stroke="black" stroke-width="1.49333" stroke-miterlimit="10"></path><path d="M266.667 172.944C263.663 179.515 246.604 178.161 228.569 169.914C210.533 161.667 198.352 149.651 201.357 143.08C209.606 125.04 230.907 117.107 248.944 125.355C266.981 133.603 274.916 154.905 266.667 172.944Z" fill="white" fill-opacity="0.8"></path><path opacity="0.8" d="M254.854 146.238C256.423 146.956 258.278 146.265 258.996 144.695C259.713 143.125 259.023 141.271 257.453 140.553C255.883 139.835 254.029 140.526 253.311 142.096C252.593 143.666 253.284 145.52 254.854 146.238Z" fill="white"></path><path opacity="0.8" d="M258.553 152.241C259.998 157.903 259.589 164.077 256.97 169.805" stroke="white" stroke-width="2.13333" stroke-linecap="round" stroke-linejoin="round"></path><path d="M248.944 125.355C230.907 117.107 209.606 125.04 201.357 143.08C198.352 149.651 210.531 161.666 228.571 169.915C246.61 178.164 263.665 179.516 266.669 172.945C274.918 154.906 266.981 133.603 248.946 125.356L248.944 125.355ZM230.062 166.649C211.047 157.954 203.282 147.504 204.623 144.573C212.033 128.367 231.245 121.21 247.451 128.621C263.657 136.031 270.813 155.245 263.402 171.451C262.062 174.383 249.079 175.345 230.062 166.649Z" fill="white" fill-opacity="0.8"></path><path d="M266.667 172.944C263.663 179.515 246.602 178.16 228.569 169.914C210.535 161.668 198.352 149.651 201.357 143.08C209.606 125.04 230.907 117.107 248.944 125.355C266.981 133.603 274.916 154.905 266.667 172.944Z" stroke="black" stroke-width="1.49333" stroke-miterlimit="10"></path></g><g clip-path="url(#clip20_235_49395)"><path d="M36.961 169.782C19.6224 160.161 13.3651 138.3 22.9867 120.961C32.6084 103.622 54.4677 97.364 71.8081 106.987C65.4901 103.481 52.5653 114.69 42.9405 132.034C33.3158 149.378 30.643 166.276 36.961 169.782Z" fill="currentColor" stroke="black" stroke-width="1.49333" stroke-miterlimit="10"></path><path d="M42.9386 132.033C33.3158 149.373 30.6395 166.274 36.9609 169.782C43.2823 173.29 56.2076 162.077 65.8304 144.736C75.4531 127.396 78.1294 110.495 71.808 106.987C65.4866 103.479 52.5614 114.692 42.9386 132.033Z" fill="currentColor" stroke="black" stroke-width="1.49333" stroke-miterlimit="10"></path><path d="M46.0782 133.775C56.2247 115.491 67.2475 108.562 70.0661 110.126C72.8847 111.69 72.8376 124.71 62.6912 142.994C52.5447 161.278 41.5219 168.207 38.7033 166.643C35.8847 165.079 35.9317 152.059 46.0782 133.775Z" fill="currentColor" stroke="black" stroke-width="1.49333" stroke-miterlimit="10"></path><path d="M36.961 169.782C19.6224 160.161 13.3651 138.3 22.9867 120.961C32.6084 103.622 54.4677 97.364 71.8081 106.987C65.4901 103.481 52.5653 114.69 42.9405 132.034C33.3158 149.378 30.643 166.276 36.961 169.782Z" fill="white" fill-opacity="0.2" stroke="black" stroke-width="1.49333" stroke-miterlimit="10"></path><path d="M65.8323 144.737C75.455 127.397 78.1317 110.496 71.81 106.988C65.4883 103.48 52.5632 114.693 42.9405 132.034C33.3178 149.374 30.6412 166.275 36.9629 169.783C43.2846 173.291 56.2096 162.078 65.8323 144.737ZM46.0781 133.775C56.2246 115.491 67.2474 108.562 70.066 110.126C72.8845 111.69 72.8375 124.71 62.691 142.994C52.5446 161.278 41.5217 168.207 38.7032 166.643C35.8846 165.079 35.9316 152.059 46.0781 133.775Z" fill="white" fill-opacity="0.2" stroke="black" stroke-width="1.49333" stroke-miterlimit="10"></path><path d="M65.8323 144.737C75.455 127.397 78.1317 110.496 71.81 106.988C65.4883 103.48 52.5632 114.693 42.9405 132.034C33.3178 149.374 30.6412 166.275 36.9629 169.783C43.2846 173.291 56.2096 162.078 65.8323 144.737Z" stroke="black" stroke-width="1.49333" stroke-miterlimit="10"></path><path d="M36.9612 169.782C30.6432 166.276 33.318 149.374 42.9407 132.034C52.5634 114.693 65.4893 103.483 71.8072 106.989C89.1514 116.613 95.4063 138.466 85.7826 155.808C76.1588 173.15 54.3054 179.407 36.9612 169.782Z" fill="white" fill-opacity="0.8"></path><path opacity="0.8" d="M64.5043 160.078C63.6668 161.588 64.2113 163.49 65.7206 164.328C67.2299 165.165 69.1323 164.621 69.9698 163.111C70.8074 161.602 70.2628 159.7 68.7536 158.862C67.2443 158.025 65.3419 158.569 64.5043 160.078Z" fill="white"></path><path opacity="0.8" d="M58.2319 163.3C52.4745 164.301 46.3505 163.414 40.8439 160.358" stroke="white" stroke-width="2.13333" stroke-linecap="round" stroke-linejoin="round"></path><path d="M85.7826 155.808C95.4063 138.466 89.1514 116.613 71.8072 106.989C65.4893 103.483 52.5645 114.692 42.9397 132.036C33.3149 149.38 30.6422 166.278 36.9602 169.784C54.3043 179.409 76.1588 173.15 85.7815 155.81L85.7826 155.808ZM46.0801 133.776C56.2256 115.494 67.2465 108.564 70.0651 110.128C85.6465 118.775 91.2897 138.485 82.6432 154.066C73.9966 169.647 54.2847 175.289 38.7033 166.643C35.8848 165.079 35.9336 152.06 46.0801 133.776Z" fill="white" fill-opacity="0.8"></path><path d="M36.9612 169.782C30.6432 166.276 33.3191 149.372 42.9407 132.034C52.5624 114.695 65.4893 103.483 71.8072 106.989C89.1514 116.613 95.4063 138.466 85.7826 155.808C76.1588 173.15 54.3054 179.407 36.9612 169.782Z" stroke="black" stroke-width="1.49333" stroke-miterlimit="10"></path></g><defs><clipPath id="clip0_235_49395"><rect width="80" height="80" fill="white" transform="matrix(-0.91016 -0.414257 -0.414257 0.91016 263.361 189.548)"></rect></clipPath><clipPath id="clip1_235_49395"><rect width="80" height="80" fill="white" transform="matrix(-0.885031 0.465532 0.465532 0.885031 204.802 125)"></rect></clipPath><clipPath id="clip2_235_49395"><rect width="80" height="80" fill="white" transform="matrix(-0.874041 -0.485852 -0.485852 0.874041 116.407 69.4839)"></rect></clipPath><clipPath id="clip3_235_49395"><rect width="80" height="80" fill="white" transform="matrix(-0.936533 -0.350579 -0.350579 0.936533 205.969 28.0463)"></rect></clipPath><clipPath id="clip4_235_49395"><rect width="80" height="80" fill="white" transform="matrix(-0.527746 -0.849402 -0.849402 0.527746 234.172 145.952)"></rect></clipPath><clipPath id="clip5_235_49395"><rect width="80" height="80" fill="white" transform="matrix(-0.913462 -0.406923 -0.406923 0.913462 309.707 36.6298)"></rect></clipPath><clipPath id="clip6_235_49395"><rect width="80" height="80" fill="white" transform="matrix(0.848681 0.528905 0.528905 -0.848681 121 84.8945)"></rect></clipPath><clipPath id="clip7_235_49395"><rect width="80" height="80" fill="white" transform="matrix(-0.909429 -0.415858 -0.415858 0.909429 342.02 71.27)"></rect></clipPath><clipPath id="clip8_235_49395"><rect width="80" height="80" fill="white" transform="matrix(0.191488 0.981495 0.981495 -0.191488 45 173.319)"></rect></clipPath><clipPath id="clip9_235_49395"><rect width="80" height="80" fill="white" transform="matrix(-0.320526 0.94724 0.94724 0.320526 258.64 93)"></rect></clipPath><clipPath id="clip10_235_49395"><rect width="80" height="80" fill="white" transform="matrix(-0.43413 0.90085 0.90085 0.43413 119.042 120.311)"></rect></clipPath><clipPath id="clip11_235_49395"><rect width="80" height="80" fill="white" transform="matrix(-0.885031 0.465532 0.465532 0.885031 162.802 55)"></rect></clipPath><clipPath id="clip12_235_49395"><rect width="80" height="80" fill="white" transform="matrix(0.93018 -0.367104 -0.367104 -0.93018 187.5 115.914)"></rect></clipPath><clipPath id="clip13_235_49395"><rect width="80" height="80" fill="white" transform="matrix(0.826018 -0.563644 -0.563644 -0.826018 100.091 120.173)"></rect></clipPath><clipPath id="clip14_235_49395"><rect width="80" height="80" fill="white" transform="matrix(-0.981135 -0.193326 -0.193326 0.981135 314.957 168.466)"></rect></clipPath><clipPath id="clip15_235_49395"><rect width="80" height="80" fill="white" transform="matrix(-0.885031 0.465532 0.465532 0.885031 163.802 151)"></rect></clipPath><clipPath id="clip16_235_49395"><rect width="80" height="80" fill="white" transform="matrix(-0.885031 0.465532 0.465532 0.885031 116.802 72)"></rect></clipPath><clipPath id="clip17_235_49395"><rect width="80" height="80" fill="white" transform="matrix(0.836276 -0.548309 -0.548309 -0.836276 217.966 165.868)"></rect></clipPath><clipPath id="clip18_235_49395"><rect width="80" height="80" fill="white" transform="matrix(-0.741819 -0.6706 -0.6706 0.741819 133.519 179.174)"></rect></clipPath><clipPath id="clip19_235_49395"><rect width="80" height="80" fill="white" transform="matrix(-0.909429 -0.415858 -0.415858 0.909429 287.023 138.269)"></rect></clipPath><clipPath id="clip20_235_49395"><rect width="80" height="80" fill="white" transform="matrix(0.485224 -0.87439 -0.87439 -0.485224 69.9512 192.769)"></rect></clipPath></defs></svg>