<svg width="718" height="1200" xmlns="http://www.w3.org/2000/svg" class="css-1baulvz">

 <g>
  <title>Layer 1</title>
  <path id="svg_1" fill="#46D3FF" d="m87.1999,1128c-15.7,0 -28.4999,-12.8 -28.4999,-28.5l0,-347.6l600.6,0l0,347.6c0,15.7 -12.8,28.5 -28.5,28.5l-543.6001,0z"/>
  <path id="svg_2" fill="#000000" d="m657.8,753.4l0,346.1c0,14.9 -12.1,27 -27,27l-543.6001,0c-14.9,0 -26.9999,-12.1 -26.9999,-27l0,-346.1l597.6,0zm3,-3l-603.6,0l0,349.1c0,16.6 13.3999,30 29.9999,30l543.6001,0c16.6,0 30,-13.4 30,-30l0,-349.1z"/>
  <path id="svg_3" fill="#0072B7" d="m511.5,1091.9c-55,0 -99.7,-44.7 -99.7,-99.7l0,-35.2c0,-55 44.7,-99.7 99.7,-99.7c55,0 99.7,44.7 99.7,99.7l0,35.2c0,55 -44.7,99.7 -99.7,99.7z"/>
  <path id="svg_4" fill="#000000" d="m511.5,858.8c54.2,0 98.2,44.1 98.2,98.2l0,35.2c0,54.2 -44.1,98.2 -98.2,98.2c-54.2,0 -98.2,-44.1 -98.2,-98.2l0,-35.2c0,-54.2 44,-98.2 98.2,-98.2zm0,-3c-55.9,0 -101.2,45.3 -101.2,101.2l0,35.2c0,55.9 45.3,101.2 101.2,101.2c55.9,0 101.2,-45.3 101.2,-101.2l0,-35.2c0,-55.9 -45.3,-101.2 -101.2,-101.2z"/>
  <path id="svg_5" fill="#0072B7" d="m37.7002,677.9l0,-0.9l-0.4,-0.4c-6.8,-6.9 -3.0001,-39.2 2.3,-83.9c5.1999,-44.3 12.4,-105.1 12.4,-170.6c0,-65.5 -7.2001,-126.2 -12.4,-170.6c-5.3001,-44.7 -9.1,-77 -2.3,-83.9l0.4,-0.4l0,-0.8l642.5998,0l0,0.8l0.4,0.4c6.8,6.9 3,39.2 -2.3,83.9c-5.2,44.4 -12.4,105.1 -12.4,170.6c0,65.5 7.2,126.2 12.4,170.6c5.3,44.7 9.1,77 2.3,83.9l-0.4,0.4l0,0.8l-642.5998,0l0,0.1z"/>
  <path id="svg_6" fill="#000000" d="m678.8,167.9l0.8,0.8c6.3,6.4 2.1,41.7 -2.7,82.6c-5.2,44.4 -12.4,105.2 -12.4,170.8c0,65.6 7.2,126.4 12.4,170.8c4.8,40.9 9,76.2 2.7,82.6l-0.8,0.8l-639.6,0l-0.8,-0.8c-6.3,-6.4 -2.1,-41.7 2.7,-82.6c5.2,-44.4 12.4,-105.2 12.4,-170.8c0,-65.6 -7.2,-126.4 -12.4,-170.8c-4.8,-40.9 -9,-76.2 -2.7,-82.6l0.8,-0.8l639.6,0zm3,-3l-645.6,0l0,1.7c-14.5,14.7 14.3,123.5 14.3,255.5c0,132 -28.8,240.8 -14.3,255.5l0,1.7l645.6,0l0,-1.7c14.5,-14.7 -14.3,-123.5 -14.3,-255.5c0,-132 28.8,-240.8 14.3,-255.5l0,-1.7z"/>
  <path id="svg_7" fill="white" d="m37.7,677.9l0,-0.9l-0.4,-0.4c-14.1,-14.3 -35.3,-123.1 -35.3,-254.5c0,-131.4 21.3,-240.2 35.3,-254.5l0.4,-0.4l0,-0.8l642.6,0l0,0.8l0.4,0.4c14.1,14.3 35.3,123.1 35.3,254.5c0,131.4 -21.3,240.2 -35.3,254.5l-0.4,0.4l0,0.8l-642.6,0l0,0.1z" opacity="0.8"/>
  <path id="svg_8" fill="#000000" d="m678.8,167.9l0.8,0.8c5.3,5.4 14.3,30.1 22.5,82.1c8,51.1 12.4,111.9 12.4,171.3c0,59.4 -4.4,120.2 -12.4,171.3c-8.1,52 -17.2,76.8 -22.5,82.1l-0.8,0.8l-639.6,0l-0.8,-0.8c-5.3,-5.4 -14.3,-30.1 -22.5,-82.1c-8,-51.1 -12.4,-111.9 -12.4,-171.3c0,-59.4 4.4,-120.1 12.4,-171.3c8.1,-52 17.2,-76.8 22.5,-82.1l0.8,-0.8l639.6,0zm3,-3l-645.6,0l0,1.7c-14.5,14.7 -35.7,123.5 -35.7,255.5c0,132 21.3,240.8 35.7,255.5l0,1.7l645.6,0l0,-1.7c14.5,-14.7 35.7,-123.5 35.7,-255.5c0,-132 -21.3,-240.8 -35.7,-255.5l0,-1.7z"/>
  <path id="svg_9" fill="#46D3FF" d="m37.7,166l0,-74.2998c0,-4.7 3.8,-8.5 8.5,-8.5l625.6,0c4.7,0 8.5,3.8 8.5,8.5l0,74.2998l-642.6,0z"/>
  <path id="svg_10" fill="#000000" d="m671.8,84.7002c3.9,0 7,3.1 7,7l0,72.7998l-639.6,0l0,-72.7998c0,-3.9 3.1,-7 7,-7l625.6,0zm0,-3l-625.6,0c-5.5,0 -10,4.5 -10,10l0,75.7998l645.6,0l0,-75.7998c0,-5.5 -4.5,-10 -10,-10z"/>
  <path id="svg_11" stroke-miterlimit="10" stroke-width="3" stroke="#000000" d="m317.2,124.6l-256.5,0"/>
  <path id="svg_12" stroke-miterlimit="10" stroke-width="3" stroke="#000000" d="m653.3,124.6l-256.5,0"/>
  <path id="svg_13" fill="#FFDA57" d="m359,141.4c-9.3,0 -16.8,-7.5 -16.8,-16.8c0,-9.3 7.5,-16.8 16.8,-16.8c9.3,0 16.8,7.5 16.8,16.8c0,9.3 -7.5,16.8 -16.8,16.8z"/>
  <path id="svg_14" fill="#000000" d="m359,109.3c8.5,0 15.3,6.9 15.3,15.3c0,8.5 -6.9,15.3 -15.3,15.3c-8.4,0 -15.3,-6.9 -15.3,-15.3c0,-8.5 6.8,-15.3 15.3,-15.3zm0,-3c-10.1,0 -18.3,8.2 -18.3,18.3c0,10.1 8.2,18.3 18.3,18.3c10.1,0 18.3,-8.2 18.3,-18.3c0,-10.1 -8.2,-18.3 -18.3,-18.3z"/>
 </g>
</svg>