<svg width="718" height="1200" xmlns="http://www.w3.org/2000/svg" class="css-1baulvz">

 <g>
  <title>Layer 1</title>
  <path id="svg_1" fill="#46D3FF" d="m66.1999,1090.1c-15.7,0 -28.4999,-12.8 -28.4999,-28.5l0,-382.4l642.6,0l0,382.4c0,15.7 -12.8,28.5 -28.5,28.5l-585.6001,0zm445.3001,-228.9c-53.4,0 -96.8,43.4 -96.8,96.8l0,33.1c0,53.4 43.4,96.8 96.8,96.8c53.4,0 96.8,-43.4 96.8,-96.8l0,-33.1c0,-53.4 -43.5,-96.8 -96.8,-96.8z"/>
  <path id="svg_2" fill="#000000" d="m678.8,680.7l0,380.9c0,14.9 -12.1,27 -27,27l-127.6,0c48.2,-6.2 85.6,-47.6 85.6,-97.5l0,-33.1c0,-54.2 -44.1,-98.3 -98.3,-98.3c-54.2,0 -98.3,44.1 -98.3,98.3l0,33.1c0,49.9 37.4,91.2 85.6,97.5l-432.6001,0c-14.9,0 -26.9999,-12.1 -26.9999,-27l0,-380.9l639.6,0zm3,-3l-645.6,0l0,383.9c0,16.6 13.3999,30 29.9999,30l585.6001,0c16.6,0 30,-13.4 30,-30l0,-383.9zm-170.3,408.7c-52.6,0 -95.3,-42.7 -95.3,-95.3l0,-33.1c0,-52.6 42.7,-95.3 95.3,-95.3c52.6,0 95.3,42.7 95.3,95.3l0,33.1c0,52.7 -42.7,95.3 -95.3,95.3z"/>
  <path id="svg_3" fill="#FFDA57" d="m548.8,799c-3.8,0 -7,-3.1 -7,-7c0,-3.9 3.1,-7 7,-7c3.9,0 7,3.1 7,7c0,3.9 -3.1,7 -7,7z"/>
  <path id="svg_4" fill="#000000" d="m548.8,786.6c3,0 5.5,2.4 5.5,5.5c0,3.1 -2.4,5.5 -5.5,5.5c-3,0 -5.5,-2.4 -5.5,-5.5c0,-3.1 2.5,-5.5 5.5,-5.5zm0,-3c-4.7,0 -8.5,3.8 -8.5,8.5c0,4.7 3.8,8.5 8.5,8.5c4.7,0 8.5,-3.8 8.5,-8.5c0,-4.7 -3.8,-8.5 -8.5,-8.5z"/>
  <path id="svg_5" fill="#FFDA57" d="m581.4,799c-3.8,0 -7,-3.1 -7,-7c0,-3.9 3.1,-7 7,-7c3.9,0 7,3.1 7,7c0,3.9 -3.1,7 -7,7z"/>
  <path id="svg_6" fill="#000000" d="m581.4,786.6c3,0 5.5,2.4 5.5,5.5c0,3.1 -2.4,5.5 -5.5,5.5c-3,0 -5.5,-2.4 -5.5,-5.5c0,-3.1 2.5,-5.5 5.5,-5.5zm0,-3c-4.7,0 -8.5,3.8 -8.5,8.5c0,4.7 3.8,8.5 8.5,8.5c4.7,0 8.5,-3.8 8.5,-8.5c0,-4.7 -3.8,-8.5 -8.5,-8.5z"/>
  <path id="svg_7" fill="#FFDA57" d="m612.7,799c-3.8,0 -7,-3.1 -7,-7c0,-3.9 3.1,-7 7,-7c3.9,0 7,3.1 7,7c0,3.9 -3.2,7 -7,7z"/>
  <path id="svg_8" fill="#000000" d="m612.7,786.6c3,0 5.5,2.4 5.5,5.5c0,3.1 -2.4,5.5 -5.5,5.5c-3,0 -5.5,-2.4 -5.5,-5.5c0,-3.1 2.5,-5.5 5.5,-5.5zm0,-3c-4.7,0 -8.5,3.8 -8.5,8.5c0,4.7 3.8,8.5 8.5,8.5c4.7,0 8.5,-3.8 8.5,-8.5c0,-4.7 -3.8,-8.5 -8.5,-8.5z"/>
  <path id="svg_9" fill="#B4EFFF" d="m66.1999,724.3c-15.7,0 -28.4999,-12.8 -28.4999,-28.5l0,-16.5l642.6,0l0,16.5c0,15.7 -12.8,28.5 -28.5,28.5l-585.6001,0z"/>
  <path id="svg_10" fill="#000000" d="m678.8,680.7l0,15c0,14.9 -12.1,27 -27,27l-585.6001,0c-14.9,0 -26.9999,-12.1 -26.9999,-27l0,-15l639.6,0zm3,-3l-645.6,0l0,18c0,16.6 13.3999,30 29.9999,30l585.6001,0c16.6,0 30,-13.4 30,-30l0,-18z"/>
  <path id="svg_11" fill="#B4EFFF" d="m511.5,1103.8c-60.6,0 -109.9,-49.3 -109.9,-109.9l0,-38.7c0,-60.6 49.3,-109.9 109.9,-109.9c60.6,0 109.9,49.3 109.9,109.9l0,38.7c-0.1,60.6 -49.3,109.9 -109.9,109.9zm0,-242.6c-53.4,0 -96.8,43.4 -96.8,96.8l0,33.1c0,53.4 43.4,96.8 96.8,96.8c53.4,0 96.8,-43.4 96.8,-96.8l0,-33.1c0,-53.4 -43.5,-96.8 -96.8,-96.8z"/>
  <path id="svg_12" fill="#000000" d="m511.5,846.9c28.9,0 56.2,11.3 76.6,31.7c20.5,20.5 31.7,47.7 31.7,76.6l0,38.7c0,28.9 -11.3,56.2 -31.7,76.6c-20.5,20.5 -47.7,31.7 -76.6,31.7c-28.9,0 -56.2,-11.3 -76.6,-31.7c-20.4,-20.4 -31.7,-47.7 -31.7,-76.6l0,-38.7c0,-28.9 11.3,-56.2 31.7,-76.6c20.4,-20.5 47.6,-31.7 76.6,-31.7zm0,242.5c54.2,0 98.3,-44.1 98.3,-98.3l0,-33.1c0,-54.2 -44.1,-98.3 -98.3,-98.3c-54.2,0 -98.3,44.1 -98.3,98.3l0,33.1c0,54.2 44.1,98.3 98.3,98.3zm0,-245.5c-61.5,0 -111.4,49.9 -111.4,111.4l0,38.7c0,61.5 49.9,111.4 111.4,111.4c61.5,0 111.4,-49.9 111.4,-111.4l0,-38.7c-0.1,-61.6 -49.9,-111.4 -111.4,-111.4zm0,242.5c-52.6,0 -95.3,-42.7 -95.3,-95.3l0,-33.1c0,-52.6 42.7,-95.3 95.3,-95.3c52.6,0 95.3,42.7 95.3,95.3l0,33.1c0,52.7 -42.7,95.3 -95.3,95.3z"/>
  <path id="svg_13" fill="#46D3FF" d="m113.5,1090.1l0,-61.4c0,-9.7 7.9,-17.6 17.6,-17.6l175.7,0c9.7,0 17.6,7.9 17.6,17.6l0,61.4l-210.9,0z"/>
  <path id="svg_14" fill="#000000" d="m306.9,1012.5c8.9,0 16.1,7.2 16.1,16.1l0,59.9l-208,0l0,-59.9c0,-8.9 7.2,-16.1 16.1,-16.1l175.8,0zm0,-3l-175.8,0c-10.6,0 -19.1,8.6 -19.1,19.1l0,62.9l214,0l0,-62.9c0,-10.5 -8.6,-19.1 -19.1,-19.1z"/>
  <path id="svg_15" stroke-miterlimit="10" stroke-width="3" stroke="#000000" d="m112,1042.1l214,0"/>
  <path id="svg_16" stroke-miterlimit="10" stroke-width="3" stroke="#000000" d="m112,1066.5l214,0"/>
  <path id="svg_17" fill="#46D3FF" d="m511.5,1103.8c-39.2,0 -75.4,-20.9 -95.1,-54.8l190.2,0c-19.7,33.9 -55.9,54.8 -95.1,54.8z"/>
  <path id="svg_18" fill="#000000" d="m603.9,1050.5c-19.7,32.1 -54.6,51.8 -92.4,51.8c-37.8,0 -72.8,-19.7 -92.4,-51.8l184.8,0zm5.2,-3l-195.3,0c18.9,34.4 55.6,57.8 97.6,57.8c42.2,0 78.8,-23.4 97.7,-57.8z"/>
  <path id="svg_19" fill="#B4EFFF" d="m409,812.9c-4.7,0 -8.5,-3.8 -8.5,-8.5l0,-24.7c0,-4.7 3.8,-8.5 8.5,-8.5l100,0c4.7,0 8.5,3.8 8.5,8.5l0,24.7c0,4.7 -3.8,8.5 -8.5,8.5l-100,0z"/>
  <path id="svg_20" fill="#000000" d="m509,772.7c3.9,0 7,3.1 7,7l0,24.7c0,3.9 -3.1,7 -7,7l-100,0c-3.9,0 -7,-3.1 -7,-7l0,-24.7c0,-3.9 3.1,-7 7,-7l100,0zm0,-3l-100,0c-5.5,0 -10,4.5 -10,10l0,24.7c0,5.5 4.5,10 10,10l100,0c5.5,0 10,-4.5 10,-10l0,-24.7c0,-5.5 -4.4,-10 -10,-10z"/>
  <path id="svg_21" fill="#0072B7" d="m498.9,784.1l-79.7,0l0,15.9l79.7,0l0,-15.9z"/>
  <path id="svg_22" fill="#000000" d="m497.4,785.6l0,12.9l-76.7,0l0,-12.9l76.7,0zm3,-3l-82.7,0l0,18.9l82.7,0l0,-18.9z"/>
  <path id="svg_23" fill="#C0EDFF" d="m37.7,677.9l0,-0.9l-0.4,-0.4c-14.1,-14.3 -35.3,-123.1 -35.3,-254.5c0,-131.4 21.3,-240.2 35.3,-254.5l0.4,-0.4l0,-0.8l642.6,0l0,0.8l0.4,0.4c14.1,14.3 35.3,123.1 35.3,254.5c0,131.4 -21.3,240.2 -35.3,254.5l-0.4,0.4l0,0.8l-642.6,0l0,0.1z" opacity="0.3"/>
  <path id="svg_24" fill="#000000" d="m678.8,167.9l0.8,0.8c5.3,5.4 14.3,30.1 22.5,82.1c8,51.1 12.4,111.9 12.4,171.3c0,59.4 -4.4,120.2 -12.4,171.3c-8.1,52 -17.2,76.8 -22.5,82.1l-0.8,0.8l-639.6,0l-0.8,-0.8c-5.3,-5.4 -14.3,-30.1 -22.5,-82.1c-8,-51.1 -12.4,-111.9 -12.4,-171.3c0,-59.4 4.4,-120.1 12.4,-171.3c8.1,-52 17.2,-76.8 22.5,-82.1l0.8,-0.8l639.6,0zm3,-3l-645.6,0l0,1.7c-14.5,14.7 -35.7,123.5 -35.7,255.5c0,132 21.3,240.8 35.7,255.5l0,1.7l645.6,0l0,-1.7c14.5,-14.7 35.7,-123.5 35.7,-255.5c0,-132 -21.3,-240.8 -35.7,-255.5l0,-1.7z"/>
 </g>
</svg>