<svg width="718" height="1200" xmlns="http://www.w3.org/2000/svg" class="css-1baulvz">

 <g>
  <title>Layer 1</title>
  <path id="svg_25" fill="#FFDA57" d="m301.899,951.561c45.769,-45.769 45.769,-119.975 0,-165.744c-45.769,-45.769 -119.975,-45.769 -165.744,0c-45.7692,45.769 -45.7692,119.975 0,165.744c45.769,45.769 119.975,45.769 165.744,0z"/>
  <path id="svg_26" fill="#000000" d="m219,752.9c30.9,0 60,12 81.8,33.9c21.9,21.9 33.9,50.9 33.9,81.8c0,30.9 -12,60 -33.9,81.8c-21.9,21.8 -50.9,33.9 -81.8,33.9c-30.9,0 -60,-12 -81.8,-33.9c-21.9,-21.9 -33.9,-50.9 -33.9,-81.8c0,-30.9 12,-60 33.9,-81.8c21.8,-21.8 50.9,-33.9 81.8,-33.9zm0,-3c-65.6,0 -118.7,53.2 -118.7,118.7c0,65.5 53.1,118.8 118.7,118.8c65.6,0 118.7,-53.2 118.7,-118.7c0,-65.5 -53.1,-118.8 -118.7,-118.8z"/>
  <path id="svg_27" fill="#FFDA57" d="m313.061,877.989c5.143,-51.936 -32.79,-98.206 -84.725,-103.349c-51.935,-5.143 -98.206,32.79 -103.349,84.725c-5.143,51.935 32.79,98.206 84.725,103.349c51.935,5.143 98.206,-32.79 103.349,-84.725z"/>
  <path id="svg_28" fill="#000000" d="m219,775.6c51.3,0 93,41.7 93,93c0,51.3 -41.7,93 -93,93c-51.3,0 -93,-41.7 -93,-93c0,-51.3 41.7,-93 93,-93zm0,-3c-53,0 -96,43 -96,96c0,53 43,96 96,96c53,0 96,-43 96,-96c0,-53 -43,-96 -96,-96z"/>
  <path id="svg_29" fill="#FFDA57" d="m148.1,978.5c-2.3,0 -4.4,-0.9 -6,-2.5l-30.4,-30.4c-3.3,-3.3 -3.3,-8.7 0,-12l172.2,-172.2c1.6,-1.6 3.7,-2.5 6,-2.5c2.3,0 4.4,0.9 6,2.5l30.4,30.4c3.3,3.3 3.3,8.7 0,12l-172.2,172.2c-1.6,1.6 -3.7,2.5 -6,2.5z"/>
  <path id="svg_30" fill="#000000" d="m289.9,760.4c1.9,0 3.6,0.7 4.9,2.1l30.4,30.4c2.7,2.7 2.7,7.2 0,9.9l-172.1,172.1c-1.3,1.3 -3.1,2.1 -4.9,2.1c-1.9,0 -3.6,-0.7 -4.9,-2.1l-30.4,-30.4c-2.7,-2.7 -2.7,-7.2 0,-9.9l172.2,-172.2c1.2,-1.3 2.9,-2 4.8,-2zm0,-3c-2.6,0 -5.1,1 -7.1,2.9l-172.2,172.2c-3.9,3.9 -3.9,10.2 0,14.1l30.4,30.4c2,2 4.5,2.9 7.1,2.9c2.6,0 5.1,-1 7.1,-2.9l172.2,-172.2c3.9,-3.9 3.9,-10.2 0,-14.1l-30.4,-30.4c-2,-2 -4.6,-2.9 -7.1,-2.9z"/>
 </g>
</svg>