<svg xmlns="http://www.w3.org/2000/svg" viewBox="0 0 718 1200" class="css-1baulvz"><path d="M66.1999 1090.1C50.4999 1090.1 37.7 1077.3 37.7 1061.6V679.2H680.3V1061.6C680.3 1077.3 667.5 1090.1 651.8 1090.1H66.1999ZM511.5 861.2C458.1 861.2 414.7 904.6 414.7 958V991.1C414.7 1044.5 458.1 1087.9 511.5 1087.9C564.9 1087.9 608.3 1044.5 608.3 991.1V958C608.3 904.6 564.8 861.2 511.5 861.2Z" fill="#46D3FF"></path><path d="M678.8 680.7V1061.6C678.8 1076.5 666.7 1088.6 651.8 1088.6H524.2C572.4 1082.4 609.8 1041 609.8 991.1V958C609.8 903.8 565.7 859.7 511.5 859.7C457.3 859.7 413.2 903.8 413.2 958V991.1C413.2 1041 450.6 1082.3 498.8 1088.6H66.1999C51.2999 1088.6 39.2 1076.5 39.2 1061.6V680.7H678.8ZM681.8 677.7H36.2V1061.6C36.2 1078.2 49.5999 1091.6 66.1999 1091.6H651.8C668.4 1091.6 681.8 1078.2 681.8 1061.6V677.7ZM511.5 1086.4C458.9 1086.4 416.2 1043.7 416.2 991.1V958C416.2 905.4 458.9 862.7 511.5 862.7C564.1 862.7 606.8 905.4 606.8 958V991.1C606.8 1043.8 564.1 1086.4 511.5 1086.4Z" fill="#000000"></path><path d="M548.8 799C545 799 541.8 795.9 541.8 792C541.8 788.1 544.9 785 548.8 785C552.7 785 555.8 788.1 555.8 792C555.8 795.9 552.7 799 548.8 799Z" fill="#FFDA57"></path><path d="M548.8 786.6C551.8 786.6 554.3 789 554.3 792.1C554.3 795.2 551.9 797.6 548.8 797.6C545.8 797.6 543.3 795.2 543.3 792.1C543.3 789 545.8 786.6 548.8 786.6ZM548.8 783.6C544.1 783.6 540.3 787.4 540.3 792.1C540.3 796.8 544.1 800.6 548.8 800.6C553.5 800.6 557.3 796.8 557.3 792.1C557.3 787.4 553.5 783.6 548.8 783.6Z" fill="#000000"></path><path d="M581.4 799C577.6 799 574.4 795.9 574.4 792C574.4 788.1 577.5 785 581.4 785C585.3 785 588.4 788.1 588.4 792C588.4 795.9 585.3 799 581.4 799Z" fill="#FFDA57"></path><path d="M581.4 786.6C584.4 786.6 586.9 789 586.9 792.1C586.9 795.2 584.5 797.6 581.4 797.6C578.4 797.6 575.9 795.2 575.9 792.1C575.9 789 578.4 786.6 581.4 786.6ZM581.4 783.6C576.7 783.6 572.9 787.4 572.9 792.1C572.9 796.8 576.7 800.6 581.4 800.6C586.1 800.6 589.9 796.8 589.9 792.1C589.9 787.4 586.1 783.6 581.4 783.6Z" fill="#000000"></path><path d="M612.7 799C608.9 799 605.7 795.9 605.7 792C605.7 788.1 608.8 785 612.7 785C616.6 785 619.7 788.1 619.7 792C619.7 795.9 616.5 799 612.7 799Z" fill="#FFDA57"></path><path d="M612.7 786.6C615.7 786.6 618.2 789 618.2 792.1C618.2 795.2 615.8 797.6 612.7 797.6C609.7 797.6 607.2 795.2 607.2 792.1C607.2 789 609.7 786.6 612.7 786.6ZM612.7 783.6C608 783.6 604.2 787.4 604.2 792.1C604.2 796.8 608 800.6 612.7 800.6C617.4 800.6 621.2 796.8 621.2 792.1C621.2 787.4 617.4 783.6 612.7 783.6Z" fill="#000000"></path><path d="M66.1999 724.3C50.4999 724.3 37.7 711.5 37.7 695.8V679.3H680.3V695.8C680.3 711.5 667.5 724.3 651.8 724.3H66.1999Z" fill="#B4EFFF"></path><path d="M678.8 680.7V695.7C678.8 710.6 666.7 722.7 651.8 722.7H66.1999C51.2999 722.7 39.2 710.6 39.2 695.7V680.7H678.8ZM681.8 677.7H36.2V695.7C36.2 712.3 49.5999 725.7 66.1999 725.7H651.8C668.4 725.7 681.8 712.3 681.8 695.7V677.7Z" fill="#000000"></path><path d="M511.5 1103.8C450.9 1103.8 401.6 1054.5 401.6 993.9V955.2C401.6 894.6 450.9 845.3 511.5 845.3C572.1 845.3 621.4 894.6 621.4 955.2V993.9C621.3 1054.5 572.1 1103.8 511.5 1103.8ZM511.5 861.2C458.1 861.2 414.7 904.6 414.7 958V991.1C414.7 1044.5 458.1 1087.9 511.5 1087.9C564.9 1087.9 608.3 1044.5 608.3 991.1V958C608.3 904.6 564.8 861.2 511.5 861.2Z" fill="#B4EFFF"></path><path d="M511.5 846.9C540.4 846.9 567.7 858.2 588.1 878.6C608.6 899.1 619.8 926.3 619.8 955.2V993.9C619.8 1022.8 608.5 1050.1 588.1 1070.5C567.6 1091 540.4 1102.2 511.5 1102.2C482.6 1102.2 455.3 1090.9 434.9 1070.5C414.5 1050.1 403.2 1022.8 403.2 993.9V955.2C403.2 926.3 414.5 899 434.9 878.6C455.3 858.1 482.5 846.9 511.5 846.9ZM511.5 1089.4C565.7 1089.4 609.8 1045.3 609.8 991.1V958C609.8 903.8 565.7 859.7 511.5 859.7C457.3 859.7 413.2 903.8 413.2 958V991.1C413.2 1045.3 457.3 1089.4 511.5 1089.4ZM511.5 843.9C450 843.9 400.1 893.8 400.1 955.3V994C400.1 1055.5 450 1105.4 511.5 1105.4C573 1105.4 622.9 1055.5 622.9 994V955.3C622.8 893.7 573 843.9 511.5 843.9ZM511.5 1086.4C458.9 1086.4 416.2 1043.7 416.2 991.1V958C416.2 905.4 458.9 862.7 511.5 862.7C564.1 862.7 606.8 905.4 606.8 958V991.1C606.8 1043.8 564.1 1086.4 511.5 1086.4Z" fill="#000000"></path><path d="M113.5 1090.1V1028.7C113.5 1019 121.4 1011.1 131.1 1011.1H306.8C316.5 1011.1 324.4 1019 324.4 1028.7V1090.1H113.5Z" fill="#46D3FF"></path><path d="M306.9 1012.5C315.8 1012.5 323 1019.7 323 1028.6V1088.5H115V1028.6C115 1019.7 122.2 1012.5 131.1 1012.5H306.9ZM306.9 1009.5H131.1C120.5 1009.5 112 1018.1 112 1028.6V1091.5H326V1028.6C326 1018.1 317.4 1009.5 306.9 1009.5Z" fill="#000000"></path><path d="M112 1042.1H326" stroke="#000000" stroke-width="3" stroke-miterlimit="10"></path><path d="M112 1066.5H326" stroke="#000000" stroke-width="3" stroke-miterlimit="10"></path><path d="M511.5 1103.8C472.3 1103.8 436.1 1082.9 416.4 1049H606.6C586.9 1082.9 550.7 1103.8 511.5 1103.8Z" fill="#46D3FF"></path><path d="M603.9 1050.5C584.2 1082.6 549.3 1102.3 511.5 1102.3C473.7 1102.3 438.7 1082.6 419.1 1050.5H603.9ZM609.1 1047.5H413.8C432.7 1081.9 469.4 1105.3 511.4 1105.3C553.6 1105.3 590.2 1081.9 609.1 1047.5Z" fill="#000000"></path><path d="M409 812.9C404.3 812.9 400.5 809.1 400.5 804.4V779.7C400.5 775 404.3 771.2 409 771.2H509C513.7 771.2 517.5 775 517.5 779.7V804.4C517.5 809.1 513.7 812.9 509 812.9H409Z" fill="#B4EFFF"></path><path d="M509 772.7C512.9 772.7 516 775.8 516 779.7V804.4C516 808.3 512.9 811.4 509 811.4H409C405.1 811.4 402 808.3 402 804.4V779.7C402 775.8 405.1 772.7 409 772.7H509ZM509 769.7H409C403.5 769.7 399 774.2 399 779.7V804.4C399 809.9 403.5 814.4 409 814.4H509C514.5 814.4 519 809.9 519 804.4V779.7C519 774.2 514.6 769.7 509 769.7Z" fill="#000000"></path><path d="M498.9 784.1H419.2V800H498.9V784.1Z" fill="#0072B7"></path><path d="M497.4 785.6V798.5H420.7V785.6H497.4ZM500.4 782.6H417.7V801.5H500.4V782.6Z" fill="#000000"></path><path opacity="0.3" d="M37.7 677.9V677L37.3 676.6C23.2 662.3 2 553.5 2 422.1C2 290.7 23.3 181.9 37.3 167.6L37.7 167.2V166.4H680.3V167.2L680.7 167.6C694.8 181.9 716 290.7 716 422.1C716 553.5 694.7 662.3 680.7 676.6L680.3 677V677.8H37.7V677.9Z" fill="#C0EDFF"></path><path d="M678.8 167.9L679.6 168.7C684.9 174.1 693.9 198.8 702.1 250.8C710.1 301.9 714.5 362.7 714.5 422.1C714.5 481.5 710.1 542.3 702.1 593.4C694 645.4 684.9 670.2 679.6 675.5L678.8 676.3H39.2L38.4 675.5C33.1 670.1 24.1 645.4 15.9 593.4C7.9 542.3 3.5 481.5 3.5 422.1C3.5 362.7 7.9 302 15.9 250.8C24 198.8 33.1 174 38.4 168.7L39.2 167.9H678.8ZM681.8 164.9H36.2V166.6C21.7 181.3 0.5 290.1 0.5 422.1C0.5 554.1 21.8 662.9 36.2 677.6V679.3H681.8V677.6C696.3 662.9 717.5 554.1 717.5 422.1C717.5 290.1 696.2 181.3 681.8 166.6V164.9Z" fill="#000000"></path><g id="machineControl" class="machineControl"><path d="M301.899 951.561C347.668 905.792 347.668 831.586 301.899 785.817C256.13 740.048 181.924 740.048 136.155 785.817C90.3858 831.586 90.3858 905.792 136.155 951.561C181.924 997.33 256.13 997.33 301.899 951.561Z" fill="#FFDA57"></path><path d="M219 752.9C249.9 752.9 279 764.9 300.8 786.8C322.7 808.7 334.7 837.7 334.7 868.6C334.7 899.5 322.7 928.6 300.8 950.4C278.9 972.2 249.9 984.3 219 984.3C188.1 984.3 159 972.3 137.2 950.4C115.3 928.5 103.3 899.5 103.3 868.6C103.3 837.7 115.3 808.6 137.2 786.8C159 765 188.1 752.9 219 752.9ZM219 749.9C153.4 749.9 100.3 803.1 100.3 868.6C100.3 934.1 153.4 987.4 219 987.4C284.6 987.4 337.7 934.2 337.7 868.7C337.7 803.2 284.6 749.9 219 749.9Z" fill="#000000"></path><path d="M313.061 877.989C318.204 826.053 280.271 779.783 228.336 774.64C176.401 769.497 130.13 807.43 124.987 859.365C119.844 911.3 157.777 957.571 209.712 962.714C261.647 967.857 307.918 929.924 313.061 877.989Z" fill="#FFDA57"></path><path d="M219 775.6C270.3 775.6 312 817.3 312 868.6C312 919.9 270.3 961.6 219 961.6C167.7 961.6 126 919.9 126 868.6C126 817.3 167.7 775.6 219 775.6ZM219 772.6C166 772.6 123 815.6 123 868.6C123 921.6 166 964.6 219 964.6C272 964.6 315 921.6 315 868.6C315 815.6 272 772.6 219 772.6Z" fill="#000000"></path><path d="M148.1 978.5C145.8 978.5 143.7 977.6 142.1 976L111.7 945.6C108.4 942.3 108.4 936.9 111.7 933.6L283.9 761.4C285.5 759.8 287.6 758.9 289.9 758.9C292.2 758.9 294.3 759.8 295.9 761.4L326.3 791.8C329.6 795.1 329.6 800.5 326.3 803.8L154.1 976C152.5 977.6 150.4 978.5 148.1 978.5Z" fill="#FFDA57"></path><path d="M289.9 760.4C291.8 760.4 293.5 761.1 294.8 762.5L325.2 792.9C327.9 795.6 327.9 800.1 325.2 802.8L153.1 974.9C151.8 976.2 150 977 148.2 977C146.3 977 144.6 976.3 143.3 974.9L112.9 944.5C110.2 941.8 110.2 937.3 112.9 934.6L285.1 762.4C286.3 761.1 288 760.4 289.9 760.4ZM289.9 757.4C287.3 757.4 284.8 758.4 282.8 760.3L110.6 932.5C106.7 936.4 106.7 942.7 110.6 946.6L141 977C143 979 145.5 979.9 148.1 979.9C150.7 979.9 153.2 978.9 155.2 977L327.4 804.8C331.3 800.9 331.3 794.6 327.4 790.7L297 760.3C295 758.3 292.4 757.4 289.9 757.4Z" fill="#000000"></path></g></svg>