<svg xmlns="http://www.w3.org/2000/svg" viewBox="0 0 718 1200" class="css-1baulvz"><path d="M87.1999 1128C71.4999 1128 58.7 1115.2 58.7 1099.5V751.9H659.3V1099.5C659.3 1115.2 646.5 1128 630.8 1128H87.1999Z" fill="#46D3FF"></path><path d="M657.8 753.4V1099.5C657.8 1114.4 645.7 1126.5 630.8 1126.5H87.1999C72.2999 1126.5 60.2 1114.4 60.2 1099.5V753.4H657.8ZM660.8 750.4H57.2V1099.5C57.2 1116.1 70.5999 1129.5 87.1999 1129.5H630.8C647.4 1129.5 660.8 1116.1 660.8 1099.5V750.4Z" fill="#000000"></path><path d="M511.5 1091.9C456.5 1091.9 411.8 1047.2 411.8 992.2V957C411.8 902 456.5 857.3 511.5 857.3C566.5 857.3 611.2 902 611.2 957V992.2C611.2 1047.2 566.5 1091.9 511.5 1091.9Z" fill="#0072B7"></path><path d="M511.5 858.8C565.7 858.8 609.7 902.9 609.7 957V992.2C609.7 1046.4 565.6 1090.4 511.5 1090.4C457.3 1090.4 413.3 1046.3 413.3 992.2V957C413.3 902.8 457.3 858.8 511.5 858.8ZM511.5 855.8C455.6 855.8 410.3 901.1 410.3 957V992.2C410.3 1048.1 455.6 1093.4 511.5 1093.4C567.4 1093.4 612.7 1048.1 612.7 992.2V957C612.7 901.1 567.4 855.8 511.5 855.8Z" fill="#000000"></path><path d="M37.7002 677.9V677L37.3002 676.6C30.5002 669.7 34.3001 637.4 39.6002 592.7C44.8001 548.4 52.0002 487.6 52.0002 422.1C52.0002 356.6 44.8001 295.9 39.6002 251.5C34.3001 206.8 30.5002 174.5 37.3002 167.6L37.7002 167.2V166.4H680.3V167.2L680.7 167.6C687.5 174.5 683.7 206.8 678.4 251.5C673.2 295.9 666 356.6 666 422.1C666 487.6 673.2 548.3 678.4 592.7C683.7 637.4 687.5 669.7 680.7 676.6L680.3 677V677.8H37.7002V677.9Z" fill="#0072B7"></path><path d="M678.8 167.9L679.6 168.7C685.9 175.1 681.7 210.4 676.9 251.3C671.7 295.7 664.5 356.5 664.5 422.1C664.5 487.7 671.7 548.5 676.9 592.9C681.7 633.8 685.9 669.1 679.6 675.5L678.8 676.3H39.2L38.4 675.5C32.1 669.1 36.3 633.8 41.1 592.9C46.3 548.5 53.5 487.7 53.5 422.1C53.5 356.5 46.3 295.7 41.1 251.3C36.3 210.4 32.1 175.1 38.4 168.7L39.2 167.9H678.8ZM681.8 164.9H36.2V166.6C21.7 181.3 50.5 290.1 50.5 422.1C50.5 554.1 21.7 662.9 36.2 677.6V679.3H681.8V677.6C696.3 662.9 667.5 554.1 667.5 422.1C667.5 290.1 696.3 181.3 681.8 166.6V164.9Z" fill="#000000"></path><path opacity="0.8" d="M37.7 677.9V677L37.3 676.6C23.2 662.3 2 553.5 2 422.1C2 290.7 23.3 181.9 37.3 167.6L37.7 167.2V166.4H680.3V167.2L680.7 167.6C694.8 181.9 716 290.7 716 422.1C716 553.5 694.7 662.3 680.7 676.6L680.3 677V677.8H37.7V677.9Z" fill="white"></path><path d="M678.8 167.9L679.6 168.7C684.9 174.1 693.9 198.8 702.1 250.8C710.1 301.9 714.5 362.7 714.5 422.1C714.5 481.5 710.1 542.3 702.1 593.4C694 645.4 684.9 670.2 679.6 675.5L678.8 676.3H39.2L38.4 675.5C33.1 670.1 24.1 645.4 15.9 593.4C7.9 542.3 3.5 481.5 3.5 422.1C3.5 362.7 7.9 302 15.9 250.8C24 198.8 33.1 174 38.4 168.7L39.2 167.9H678.8ZM681.8 164.9H36.2V166.6C21.7 181.3 0.5 290.1 0.5 422.1C0.5 554.1 21.8 662.9 36.2 677.6V679.3H681.8V677.6C696.3 662.9 717.5 554.1 717.5 422.1C717.5 290.1 696.2 181.3 681.8 166.6V164.9Z" fill="#000000"></path><path d="M37.7 166V91.7002C37.7 87.0002 41.5 83.2002 46.2 83.2002H671.8C676.5 83.2002 680.3 87.0002 680.3 91.7002V166H37.7Z" fill="#46D3FF"></path><path d="M671.8 84.7002C675.7 84.7002 678.8 87.8002 678.8 91.7002V164.5H39.2V91.7002C39.2 87.8002 42.3 84.7002 46.2 84.7002H671.8ZM671.8 81.7002H46.2C40.7 81.7002 36.2 86.2002 36.2 91.7002V167.5H681.8V91.7002C681.8 86.2002 677.3 81.7002 671.8 81.7002Z" fill="#000000"></path><path d="M317.2 124.6H60.7" stroke="#000000" stroke-width="3" stroke-miterlimit="10"></path><path d="M653.3 124.6H396.8" stroke="#000000" stroke-width="3" stroke-miterlimit="10"></path><path d="M359 141.4C349.7 141.4 342.2 133.9 342.2 124.6C342.2 115.3 349.7 107.8 359 107.8C368.3 107.8 375.8 115.3 375.8 124.6C375.8 133.9 368.3 141.4 359 141.4Z" fill="#FFDA57"></path><path d="M359 109.3C367.5 109.3 374.3 116.2 374.3 124.6C374.3 133.1 367.4 139.9 359 139.9C350.6 139.9 343.7 133 343.7 124.6C343.7 116.1 350.5 109.3 359 109.3ZM359 106.3C348.9 106.3 340.7 114.5 340.7 124.6C340.7 134.7 348.9 142.9 359 142.9C369.1 142.9 377.3 134.7 377.3 124.6C377.3 114.5 369.1 106.3 359 106.3Z" fill="#000000"></path></svg>